<svg xmlns="http://www.w3.org/2000/svg" viewBox="0 0 1244.76 525.06"><defs><style>.cls-1{fill:#fff;}</style></defs><title>tmnt_logo</title><g id="Layer_2" data-name="Layer 2"><g id="Layer_1-2" data-name="Layer 1"><path class="cls-1" d="M90.13,62.09H0V0H253.36V62.09H163.73V326.47H90.13Z"/><path class="cls-1" d="M303.93,0H382l54.58,146.71,19.53,57.08h2l19.53-57.08L530.75,0h78.11V326.47h-69.1V206.8c0-32,6-79.61,9.51-111.16h-2l-26.54,75.61L470.17,297.93H440.63L390.55,171.25l-26-75.61h-2C366,127.18,372,174.75,372,206.8V326.47h-68.1Z"/><path class="cls-1" d="M685,0h75.61L845.7,162.23l32.55,72.1h2c-3.5-34.55-9.51-80.62-9.51-119.17V0h70.1V326.47H865.22L780.1,163.73l-32-71.1h-2c3.51,36.05,9.51,79.61,9.51,118.17V326.47H685Z"/><path class="cls-1" d="M1081.53,62.09H991.4V0h253.36V62.09h-89.63V326.47h-73.61Z"/><path class="cls-1" d="M286.35,521.38c-4.21,2.11-11.41,3.69-20.19,3.69-24.23,0-41.43-12.46-49.51-30.37-24.4-5.09-40.2-26.33-40.2-58.63,0-37.39,21.07-58.81,52-58.81s52,21.59,52,58.81c0,30.72-14.22,51.44-36.34,57.76,5.27,7.9,15.45,10.71,25.1,10.71a37.24,37.24,0,0,0,12.64-2.11Zm-57.93-47.75c15.62,0,25.46-14.57,25.46-37.57,0-22.82-9.83-36.51-25.46-36.51S203,413.24,203,436.06C203,459.06,212.79,473.63,228.41,473.63Z"/><path class="cls-1" d="M299.52,406.74h25.81v50.74c0,12.46,3.34,16.5,10.88,16.5,6.5,0,10.36-2.81,15.45-9.66V406.74h25.81v87.07H356.4l-1.93-12.11h-.53c-7.37,8.78-15.45,14.22-27.39,14.22-19,0-27-13.34-27-35.11Z"/><path class="cls-1" d="M437.5,404.63c21.94,0,42.31,16.68,42.31,45.64s-20.36,45.64-42.31,45.64c-22.12,0-42.48-16.68-42.48-45.64S415.38,404.63,437.5,404.63Zm0,70.4c10.53,0,16-9.66,16-24.75s-5.44-24.75-16-24.75c-10.71,0-16,9.66-16,24.75S426.79,475,437.5,475Z"/><path class="cls-1" d="M501.06,426.93H489.12V407.79l13.34-1.05,3-23.17h21.42v23.17h20.89v20.19H526.86v34.94c0,9.83,4.39,13.87,11.24,13.87a24.66,24.66,0,0,0,8.25-1.76l4,18.78a62.67,62.67,0,0,1-19.31,3.16c-21.59,0-30-13.52-30-33.71Z"/><path class="cls-1" d="M599,404.63c24.75,0,37,18.08,37,41.78A51.15,51.15,0,0,1,635,457.3H582.87c2.28,13.17,11.06,19,22.65,19,6.5,0,12.46-1.93,18.78-5.79l8.6,15.62a57,57,0,0,1-30.9,9.83c-24.93,0-44.06-16.85-44.06-45.64C557.94,422,578.13,404.63,599,404.63Zm15.1,36.69c0-10-4.21-17-14.57-17-8.08,0-15.1,5.44-16.85,17Z"/><path class="cls-1" d="M692.41,379.36h39.15c23.88,0,42.31,6.5,42.31,28.44a25.12,25.12,0,0,1-19.31,24.75v.7c16.33,3,24.93,11.59,24.93,26.86,0,23.35-19.66,33.71-44.59,33.71H692.41Zm37.92,46.17c12.64,0,18.26-5.44,18.26-14s-6-12.11-17.91-12.11H718.39v26.16Zm2.46,48.28c14,0,21.42-5.27,21.42-15.62,0-10-7.2-14.4-21.42-14.4h-14.4v30Z"/><path class="cls-1" d="M833.91,404.63c21.94,0,42.31,16.68,42.31,45.64s-20.36,45.64-42.31,45.64c-22.12,0-42.48-16.68-42.48-45.64S811.79,404.63,833.91,404.63Zm0,70.4c10.53,0,16-9.66,16-24.75s-5.44-24.75-16-24.75c-10.71,0-16,9.66-16,24.75S823.2,475,833.91,475Z"/><path class="cls-1" d="M931.34,404.63c21.94,0,42.31,16.68,42.31,45.64s-20.36,45.64-42.31,45.64c-22.12,0-42.48-16.68-42.48-45.64S909.22,404.63,931.34,404.63Zm0,70.4c10.53,0,16-9.66,16-24.75s-5.44-24.75-16-24.75c-10.71,0-16,9.66-16,24.75S920.63,475,931.34,475Z"/><path class="cls-1" d="M991.38,370.75h25.1v70.57h.7l27.56-34.58h28.09l-30.55,35.81,32.83,51.26h-27.91l-19.66-33.88-11.06,12.46v21.42h-25.1Z"/></g></g></svg>