<svg xmlns="http://www.w3.org/2000/svg" viewBox="0 0 2007.56 848.1"><title>crowing_hen_logo</title><g id="Layer_2" data-name="Layer 2"><g id="Layer_1-2" data-name="Layer 1"><path d="M1006.21,392.45c-6.79,6.5-16.17,9.79-27.87,9.79h0a81.84,81.84,0,0,1-11.93-1l-.54-.08c-5.38-.7-15.43-2.79-23.32-8.91,7,13.79,23.82,17.52,31.38,18.51l.54.08a81.84,81.84,0,0,0,11.93,1h0c11.7,0,21.08-3.29,27.87-9.79,3.76-3.6,8.64-11.91,14-23.07a109.21,109.21,0,0,1-2.48-21.83C1018.27,374.39,1011.24,387.63,1006.21,392.45Z"/><path d="M1237,341.41c5.48-19.2,10.29-44.17,10.83-65.61C1241,294.12,1235.39,318.64,1237,341.41Z"/><path d="M871.63,241.94a39.88,39.88,0,0,0-2.79-15.22C864,287.93,843,371.33,833.12,384.57c-10.13,13.54-26.55,15.94-38,16.56l-.55,0c-.51,0-1.23.06-2.12.06-5.47,0-15.25-.64-22.82-4.67a21.47,21.47,0,0,1-3.66-2.14c2.8,5.47,6.8,9.56,11.71,11.74,7.57,4,17.35,4.67,22.82,4.67.9,0,1.62,0,2.12-.06l.55,0c11.47-.63,27.89-3,38-16.56,1.71-2.29,3.76-6.72,6-12.74a27.43,27.43,0,0,1-1.61-3.74,29.35,29.35,0,0,1,4.18-26.92C851.84,346.82,871.25,307.93,871.63,241.94Z"/><path d="M1235.84,465.81c-.06-3.73-.15-7.43-.17-11.19a69.43,69.43,0,0,1-17.62,2.34c-19.6,0-36.06-8.79-48.75-21.94,13.43,18.29,32.75,31.54,56.8,31.54A66.93,66.93,0,0,0,1235.84,465.81Z"/><path d="M969.76,244.68a40.83,40.83,0,0,0-4.18-22.34c-6.85,61.26-34,149.19-45,162.17-7.82,9.19-19.63,13.66-36.11,13.66-1.09,0-2,0-2.72,0h-.55c-5.9,0-17.46-1.07-26.18-7.52,7.45,15.18,26.14,17.06,34.23,17.12h.55c.7,0,1.63,0,2.72,0,16.48,0,28.29-4.47,36.11-13.66,1.7-2,3.78-5.78,6.11-11a28,28,0,0,1-2.51-6.58,28.79,28.79,0,0,1,6.46-26.28C941.08,346.6,963.73,310.28,969.76,244.68Z"/><path d="M1788.24,485.75a28.06,28.06,0,0,1,8-6.45c-1.33-22.22-8.11-40-19.58-50.36l-.13-.11C1785.29,442.43,1789.44,462.31,1788.24,485.75Z"/><path d="M1762,534.21a29.25,29.25,0,0,1,6.14,13.16l1.85,9.53-4.47,8.2c-1.68,3.08-3.47,6.11-5.3,9,5-6,10.13-12.68,15.24-20.12a28.37,28.37,0,0,0-5.41-10.22l.2-.17a96.11,96.11,0,0,0,11.39-11.77c.39-.48,1.4-1.79,1.4-1.79.38-.49.76-1.06,1.14-1.57a99.08,99.08,0,0,0-1.23-15.63c-.15-1.1-.32-2.27-.46-3.49-.74,1.26-1.53,2.54-2.38,3.87-.35.54-.73,1.11-1.12,1.68l-.24.35c-1.24,1.82-2.5,3.56-3.76,5.19,0,0-1,1.31-1.4,1.79A96.11,96.11,0,0,1,1762.2,534Z"/><path d="M1894.43,538.31c-2.72-13.25-8.9-25.37-18.25-34.34a71,71,0,0,1,11.62,34.44C1890,538.35,1892.23,538.32,1894.43,538.31Z"/><path d="M1535.41,234.41c3,1,5.84,1.95,8.69,2.93,2-22.13,3.84-52,.82-67.1-6.64-33.24-17-58.53-30.72-75.17-1.51-1.83-3-3.48-4.56-5,12,16.56,21.16,40.26,27.23,70.61C1540.2,177.34,1537.63,212,1535.41,234.41Z"/><path d="M1638.44,433.25a150.77,150.77,0,0,1,17-14.27c27.93-76.06,52.17-158.92,47.64-202-3.82-36.37-12.68-64.14-26.35-82.55a75.36,75.36,0,0,0-7.17-8.35c13.16,18.41,21.73,45.74,25.47,81.3C1700,255,1669.88,351.32,1638.44,433.25Z"/><path d="M1123.33,394c-16,17.09-33.6,26.12-51,26.12-1,0-2.07,0-3.11-.1a39.89,39.89,0,0,1-24.49-10.4c8.41,13.24,20.57,19.26,32.54,20,1,.06,2.08.1,3.11.1,17.43,0,35.08-9,51-26.12a133,133,0,0,0,12.19-15.21c-.14-.52-.29-1-.42-1.55a135.54,135.54,0,0,1-3-15.69C1134.8,381.24,1126.61,390.5,1123.33,394Z"/><path d="M248.27,495.85c.74-3.29,1.58-7.13,2.46-11.36-5.34-15.24-12.95-28.07-21.88-37C237.78,460.08,244.7,476.9,248.27,495.85Z"/><path d="M580.17,425c20.85-26.95,32.33-63.61,32.33-103.24,0-55.92-14.32-91-33.49-110.64,15,20.74,25.44,53.27,25.44,101,0,39.63-11.48,76.29-32.33,103.24-18.7,24.17-43.58,38.6-66.55,38.6-14.28,0-29.44-8.13-42.7-22.16,14.92,19.84,33.48,31.76,50.75,31.76C536.59,463.62,561.47,449.18,580.17,425Z"/><path d="M394.43,354.31c-17.38,0-29.29-10.05-37.18-20.44,0,.28,0,.56,0,.82,0,3.81-2.86,54.27-12.39,104.86-5.29,28.09-21.4,113.59-68.1,113.59-10.46,0-20.11-6.71-26-16.55C246.39,662.88,172.18,767.33,125,767.33c-29.23,0-57.28-14.41-81.39-41.2,25.81,32.94,56.89,50.79,89.45,50.79,47.13,0,121.34-104.45,125.71-230.76,5.89,9.85,15.54,16.55,26,16.55,46.7,0,62.81-85.49,68.1-113.59,9.53-50.58,12.39-101.05,12.39-104.86,0-.26,0-.53,0-.82,7.89,10.39,19.8,20.44,37.18,20.44,9.21,0,17.55-3.77,24.86-9.65-.77-5.05-1.34-10.21-1.66-15.49C417,347.92,406.44,354.31,394.43,354.31Z"/><path d="M238.07,178.4c-.26,7.8-.62,18.49-.62,29.87,0,50.9,15.5,70,20.59,76.25a30,30,0,0,1,6.39,11.81c.56-.72,1.14-1.43,1.72-2.14l-.06-.07c-5.09-6.27-20.59-25.35-20.59-76.25,0-11.38.36-22.06.62-29.87.16-4.76.28-8.45.28-10.63,0-6-1.67-15.07-10.4-21.14a28.4,28.4,0,0,1,2.35,11.54C238.34,169.95,238.23,173.64,238.07,178.4Z"/><path d="M1377.52,275.74a103.76,103.76,0,0,1-2.38-24.91c-.34-1.48-.68-2.95-1.07-4.47-3.83-14.82-11.5-29.69-22.44-40.77A95.38,95.38,0,0,1,1366,236.76c8.92,34.53,4.66,57.78-11.68,63.78-.22.08-21.78,9.27-28.19,122.37-3.95,69.67.51,132.75,2.77,141.93,4.58,17.72-5.94,34.68-9.39,40.25a182.89,182.89,0,0,1-19.91,25.71c-11.81,12.83-17.31,16.55-24.5,16.55l-15-2.59h0c-9.09-2.27-22.16-6.2-41.8-12.14-63.92-19.34-170.89-51.72-248.58-51.72-112.71,0-193.3,34.63-241.06,63.68-59.87,36.42-83.27,73.1-84.85,82.1a24.14,24.14,0,0,0,1.07,7c1,3.5,3.87,14.16-2.29,24.27a20.31,20.31,0,0,1-17.76,10.13c-20.24,0-48.67-18.43-67.87-36.7-3.3-3.14-6.41-6.36-9.37-9.63A174.28,174.28,0,0,0,565.07,741c19.2,18.27,47.62,36.7,67.87,36.7a20.31,20.31,0,0,0,17.76-10.13c6.16-10.12,3.25-20.77,2.29-24.27a24.14,24.14,0,0,1-1.07-7c1.58-9,25-45.68,84.85-82.1,47.76-29.05,128.35-63.68,241.06-63.68,77.7,0,184.67,32.38,248.58,51.72,19.64,5.95,32.72,9.87,41.8,12.14h0l15,2.59c7.19,0,12.69-3.72,24.5-16.55a182.89,182.89,0,0,0,19.91-25.71c3.45-5.57,14-22.52,9.39-40.25-2.26-9.19-6.72-72.26-2.77-141.93,6.41-113.1,28-122.29,28.19-122.37,10.08-3.7,15.54-14,16.18-29.39-.34-1.58-.67-3.12-1-4.59Z"/><path d="M1738.93,699.18c-13.79,0-26-10.3-34-18l-.43-.41c-.51-.49-1.09-1.05-1.68-1.65a74.58,74.58,0,0,0,9.74,11.25l.43.41c8,7.75,20.22,18,34,18a26.81,26.81,0,0,0,3.62-.25c7.67-1.05,23-11,36.67-20.88a126.24,126.24,0,0,1,6.28-16.56q1.45-3.16,3.15-6.21c-14.46,11.32-42.78,32.49-54.15,34.05A26.81,26.81,0,0,1,1738.93,699.18Z"/><path d="M1985.49,571.44c10.37,14.31,19.41,35.56,10.19,55.58-6,13-19.54,22.54-43,38.24-18.19,12.19-45.67,30.61-52.08,44.54-2.34,5.09-1.8,7.47-1.11,10.48.77,3.38,2.57,11.29-1.35,19.81-6.38,13.86-36.63,28-59.95,28h0a57.64,57.64,0,0,1-32.09-9.32,48.08,48.08,0,0,1-6.2-4.84,48,48,0,0,0,14.25,14.44,57.64,57.64,0,0,0,32.09,9.32h0c23.31,0,53.56-14.11,59.95-28,3.92-8.52,2.12-16.43,1.35-19.81-.69-3-1.23-5.4,1.11-10.48,6.41-13.93,33.9-32.35,52.08-44.54,23.44-15.71,37-25.23,43-38.24C2015.34,611.4,1998,584.23,1985.49,571.44Z"/><path d="M1661.58,636.69c-20.35,0-39.13-6.83-52.87-19.23-.74-.66-1.45-1.36-2.16-2.07a69.32,69.32,0,0,0,10.22,11.66c13.74,12.4,32.52,19.23,52.87,19.23h0a94.73,94.73,0,0,0,16.6-1.53,29.87,29.87,0,0,1,.79-6.27,28,28,0,0,1,2.15-5.88,95.87,95.87,0,0,1-27.58,4.08Z"/><path d="M1577.49,570.75c-5.82,8.92-14.69,13.83-25,13.83h0c-9.68,0-20.16-4.57-28.65-12.54,9.11,13.79,23.64,22.13,36.71,22.14h0c10.29,0,19.17-4.91,25-13.83.19-.29.4-.64.6-1a105.29,105.29,0,0,1-3.43-17.77C1580.62,565.56,1578.85,568.66,1577.49,570.75Z"/><path d="M1556.73,361.74c-8.61-3.15-22.44-7-41.89-10.86-21,89.71-39.58,133.43-49.15,152-5.67,11-15.83,17.27-27.88,17.27-9.89,0-20.84-4.52-29.61-12.69,9.24,14.2,24.41,22.29,37.67,22.29,12.05,0,22.21-6.3,27.88-17.27,9.58-18.56,28.18-62.28,49.15-152,13.38,2.63,24,5.29,32.24,7.72C1555.66,366,1556.2,363.9,1556.73,361.74Z"/><path d="M142.57,356.27c-.92-2.61-1.72-5.32-2.42-8C123.42,401.09,106,477.77,106,555.48c0,24.64,9.1,57.6,17.23,78.94.75-2.24,1.5-4.7,2.23-7.33-6.12-19.62-11.41-43.23-11.41-62,0-74.46,16-147.92,32.07-200.43A75.2,75.2,0,0,1,142.57,356.27Z"/><path d="M939.18,139.41a55.29,55.29,0,0,1,9.63,8.4c18.74-14.11,33.38-41.42,33.38-76.55,0-29.82-10.52-57.13-25.34-71.27,10.43,15.19,17.29,37.6,17.29,61.67C974.13,97.79,958.67,125.68,939.18,139.41Z"/><path d="M697,380.76c-6.66,10-11.12,16.71-18.31,18.65-9.16,8.5-21.28,11.41-30.35,12.87l-.54.09a61.23,61.23,0,0,1-9.3.64c-4.2,0-13.14,0-20.54-5.1,7.07,14.65,22.62,14.7,28.59,14.7a61.23,61.23,0,0,0,9.3-.64l.54-.09c9.07-1.46,21.19-4.36,30.35-12.87,7.19-1.94,11.65-8.64,18.31-18.65,16.88-25.36,27-36.43,33-41-2.42-3.26-5-6.61-7.63-9.93C724.46,343.81,714.27,354.81,697,380.76Z"/><path d="M707.81,261.82a60.82,60.82,0,0,1,8.92-7c.61-16.89.3-32.81-1.34-46.2-2.1-17.11-9.58-32-20.07-42.22a74.13,74.13,0,0,1,12,32.62C709.51,216.7,709.35,238.84,707.81,261.82Z"/><path d="M430.6,255c-.57-18.58-6.68-27.38-12.69-31.51,2.63,5.28,4.5,12.65,4.69,22.95C423.9,249.13,427.68,253.08,430.6,255Z"/><path d="M244.85,351.58c-15.62,20-39.1,36.9-66.66,36.9a30.65,30.65,0,0,1-20.67-8.23c7.37,11.47,17.37,17.83,28.72,17.83,26.51,0,49.22-15.6,64.81-34.63A39.86,39.86,0,0,1,244.85,351.58Z"/><path d="M528.8,356.27c-.58-6.62-.92-14.11-.82-22.49a182.38,182.38,0,0,1,5-41.91c-.57-10.14-1.49-19.16-2.56-26.41-5.13,12.12-10.23,32-10.53,58.72-.22,19.9,1.9,35.08,4.2,44.27A66.53,66.53,0,0,0,528.8,356.27Z"/><path d="M890.94,242.1c-.43,74.73-23.66,120.3-26.52,123.67-5.91,6.95,13.86,9.3,16.88,9.33s18.94,1,25.69-7,40.54-113.17,40.87-170.32c.14-23.58-15.34-43.49-34.62-43.64-28.5-.23-47.75,24.79-47.79,32.18C865.42,189.94,891.15,206.53,890.94,242.1Zm18.79,6.4c-.3,52.94-12,91.22-19.89,110.26a49.42,49.42,0,0,1-5.41.28h-1.11c9-21.68,20.81-61.61,21.13-116.82a85.07,85.07,0,0,0-5.26-30.35A66.3,66.3,0,0,1,909.73,248.5Z"/><path d="M911.87,125.79c18.09,0,42.94-23.51,42.94-64.13,0-32-15.62-58.37-28.29-58.37-14.84,0-44.69,15.24-44.69,75.05C881.84,111.77,899.21,125.79,911.87,125.79Zm10-105.7c-11.27,10.46-21.22,30.12-21.22,64.65a74.79,74.79,0,0,0,2.62,20.38c-4.27-4.66-7.89-13.15-7.89-26.78C895.36,37.85,910.74,23.24,921.85,20.09Z"/><path d="M624.88,745c5.36,0-.34-3.6-.34-18.78,0-40.5,127.17-168.38,345.22-168.38,113.63,0,285.28,66.34,305.17,66.34.66,2.55,39.53-37.09,35.52-52.62-7.17-27.75-15.2-273.46,38.2-293.06,3.84-1.41,3.19-18.45-1.09-35-6.91-26.74-29.49-50.79-59.39-39.81-1,.36-3.07,5.9-5.76,15.66-8.27-18.56-25.94-31.9-62.33-18.55-63.66,23.36-68.47,140.54-58.48,179.24,8.81,34.12,36.78,64.52,75.65,50.26,6.72-2.47,12.86-8,18.39-15.68-1.75,47-.29,97.72,7,147.81-77.75-28.6-250.92-82.39-453.72-82.39-178.36,0-277.59,40-277.59,159.06C531.35,695.89,600.74,745,624.88,745Zm652.19-177.76-1.1-7.56c-5.93-40.69-8.3-85-7.16-131.86a62,62,0,0,0,5.63-6.8c-1.75,47-.29,97.72,7,147.81Zm-96.68-180.8a95.35,95.35,0,0,0,3.11,9.82,75.09,75.09,0,0,1-9-21c-8.35-32.33-4.91-134.36,46-157.57C1174.39,254.77,1171.47,351.91,1180.4,386.48Zm52.74,5.26c-3.2,1.18-6.66-6.76-12-27.38-14.8-57.29,18.25-131.47,34.49-137.43,3-1.11,5.62,5,8.33,15.51C1275.94,288.78,1251.08,385.16,1233.14,391.74ZM544.86,639.14c0-49.93,19.62-85.59,62.21-108.81-37.34,25.11-56.94,62.35-56.94,115.21a78.89,78.89,0,0,0,5.9,29.14C549.26,663.54,544.86,651.44,544.86,639.14Z"/><path d="M125,744.31c34.87,0,106.61-98.31,106.61-219.4,0-43.29-21.34-77.13-38.55-77.13-28.61,0-57.22,46.89-57.22,67.67,0,5.06,16.32,17.25,16.32,49,0,76.33-24.25,109.1-29.22,109.1-9,0-36.32-71.2-36.32-118.09,0-139.67,52.48-273.56,67.55-291.53,3.46-4.13,1.68,51.35,1.68,59.35s4.53,42.16,22.29,42.16c41.91,0,67.78-48.16,67.78-62.34,0-2.4-27.83-23.58-27.83-94.85,0-18.37.89-34.9.89-40.5,0-6.93-53.17-6.69-59.23.53C131.2,202.41,0,352.93,0,552.22,0,636.81,53,744.31,125,744.31ZM149.83,512c2.88-13.35,19.87-40.85,36.83-46.89C169.3,479.63,155.81,505.2,154.75,520,152.93,516.74,151.2,514.07,149.83,512Zm15.89,52.48a93.09,93.09,0,0,0-5.67-32.91c4.75,7.62,10.94,19.74,10.94,39.31C171,647.2,146.74,680,141.77,680a4.26,4.26,0,0,1-2.59-1.45C153,660.16,165.72,620,165.72,564.48Zm12-215.25c-3.86-1.19-8.34-17.64-8.34-25.93,0-1.34.06-4.08.12-7.66.36-18.93.46-31.65.17-40.48a39.48,39.48,0,0,1,3.3-4.81c3.46-4.13,1.68,51.35,1.68,59.35A84.54,84.54,0,0,0,177.75,349.23Zm-164.23,203c0-124.41,51.62-248.78,153.43-369.65l1-1.23a40.22,40.22,0,0,1,6.1-1.28c-35.73,42.5-155.3,188.31-155.3,378.56,0,34.14,8.64,72,23.67,105C24.46,630.64,13.52,589.61,13.52,552.22Z"/><path d="M505.56,431c33.53,0,79.57-43.56,79.57-118.82C585.13,238.28,557,204,524.79,204c-40.57,0-80.13,37.07-80.13,124.51C444.66,390.46,482.1,431,505.56,431Zm60.86-113c.25-22.48-1.3-45.46-4.25-63.07-.25-1.5-.56-3.32-.94-5.36,5,11.53,8.24,26.18,9.62,43.4.29,4.47.51,9,.65,13.66,0,1.84.1,3.66.1,5.55,0,24.81-5.43,43.9-12.2,58.05C563.47,356.58,566.18,339.37,566.42,318Zm-29.9-88.33c10.75.17,16.85,46.24,16.39,88.12-.73,64.93-25.3,81.33-30.05,81.25-16.13-.26-22.63-39.59-22.24-75.15C501.26,266.73,521.49,229.42,536.52,229.66Zm-33.91-4.72c-22.64,18-39.16,53.47-39.16,110a139.1,139.1,0,0,0,10.1,52.92c-8.66-14.36-15.38-34.25-15.38-59.31C458.18,267,478.55,236,502.62,224.94Z"/><path d="M637.61,256.38c9.09,73.94-8.07,123.19-10.48,127-5,7.93,14.88,6.69,17.87,6.17s18.84-2.48,24.5-11.55a11.48,11.48,0,0,0,.77-1.66,21.22,21.22,0,0,0,3.78.59c3.16,0,36.24-63.3,62.17-63.3,0,0,32.85,38.2,37.21,56.58.71,3,1.91,4.49,3.43,4.92,4.12,2.78,14.48,3.16,16.59,3,3-.21,18.95-.49,25.26-8.93s34.38-116,31.63-173.09c-1.13-23.54-17.65-42.23-36.89-40.91-28.45,1.95-46.32,28.39-46,35.77.17,3.59,26.73,18.19,28.44,53.7a333.06,333.06,0,0,1-4.78,76.05c-8-17-18.64-37-21.85-40.84C760.13,269,737.94,273,730.85,273c-13.09,0-40.53,45.76-53.4,73.22,7.36-39.11,15.62-104.51,10.77-143.92-2.87-23.33-20.7-40.21-39.77-36.88-28.2,4.92-44,33.14-43.14,40.45C605.75,209.44,633.28,221.19,637.61,256.38Zm177.11-5.26a333.07,333.07,0,0,1-4.78,76.05c-1.44-3-3-6.19-4.52-9.32a354.82,354.82,0,0,0,4-74.06,84.92,84.92,0,0,0-5-25.3A64.93,64.93,0,0,1,814.72,251.12ZM788,191.38c-1.22-1.38-2.41-2.65-3.53-3.8a46,46,0,0,1,17.63-13.37A55.17,55.17,0,0,0,788,191.38ZM731.86,289.1c1.1,0,2.45-.12,3.94-.22a126.82,126.82,0,0,0-8.05,9.94,40.48,40.48,0,0,0-8,3.36C724.88,295.26,729.22,290.51,731.86,289.1ZM651,254a85.18,85.18,0,0,0-4.4-18.61,63.42,63.42,0,0,1,9.81,27.34c6.08,49.45.42,87.83-4.72,109a57,57,0,0,1-6.71,1.55C651.11,350.27,657.7,308.67,651,254Zm-8.78-70.2a61.14,61.14,0,0,0-16.06,20.54c-1.44-1.37-2.83-2.62-4.12-3.72A47.17,47.17,0,0,1,642.2,183.85Z"/><path d="M1792.85,565c-39,58.54-80.82,77.36-84.83,77.91-8.24,1.13,6.11,17.51,8.47,19.75s14.42,14.66,23.84,13.37c8.95-1.23,82.46-53.65,115.35-97.27,15.56,3,51.24,3,73.38,17.43.25.16.5.26.75.4-29.59,13.18-99.43,42.25-119.35,85.53-11.93,25.93-10.36,46.4,4.92,56.4,27.43,17.94,64.53-6.73,65.82-9.53.75-1.64-5.49-13,2.47-30.29,15.75-34.22,86.52-64.21,95.07-82.79,5.64-12.26-7.35-30.66-15.48-38.21a17.08,17.08,0,0,0-3.12-2.52c-26-17-75-14.82-95.11-11.9,7-17.51,3.72-39-9.16-51.17-22.32-21.12-50.42-15.56-54.28-9.76C1799.73,505.21,1811.4,537.17,1792.85,565Zm36.41,123.53c-6.3,13.69-8.8,25.84-7.54,35.75a11.69,11.69,0,0,1-5.55-9.59c-.53-6.24,1.66-15.05,6.15-24.81,8.47-18.41,29.42-34.8,51.47-48C1854.62,654.89,1837.58,670.48,1829.26,688.56Zm-9.91-175.33,1.13,0c1.36,10.23,6.22,35.56-8.84,58.18-28.32,42.53-58.14,64.09-73.87,72.91,18.06-12.47,42.24-34.1,65.67-69.3,15-22.6,14.42-47.06,12.79-61.68C1817.18,513.29,1818.21,513.23,1819.35,513.23Z"/><path d="M432,278.94c-11.4,0-28.66-17.78-28.66-30.77,0-9-1.51-15-4.69-15s-28.75-4.7-38.55,7c-4.18,5-21.13,36.81-30.85,60.47a22.59,22.59,0,0,0-19.11-9.52c-25.14,0-47.44,44.76-47.44,50.75,0,8.39,17.43,12.82,17.43,53.75,0,61.74-15.92,114.1-15.92,119.69,0,7,5.87,14.79,12.57,14.79,49.79,0,61.18-189.82,61.18-195.42a89.68,89.68,0,0,0-.69-11c8.2-13.65,18.55-25.33,22.37-25.33,2.91,0,10.5,33,34.81,33S437.34,278.94,432,278.94ZM285.54,509c-2.59,2.83-5.06,4.4-7.31,4.88.34-1.58.77-3.49,1.17-5.28C284,488,293.62,445.21,293.62,395.63c0-15.41-2.22-26.79-5.19-35.4,4.85,7.11,10.46,18.58,10.46,41.8C298.89,448.06,290,488.85,285.54,509Zm-3.7-162.67c-1.44-2.3-2.83-4.26-4.08-5.91,5-10.35,17.87-29.81,29.49-32.73C293.86,319.76,283.85,339.25,281.84,346.29Zm77.42-64.06a16.17,16.17,0,0,0-7.44,2.38c7.82-16.08,15.74-30.34,17.91-33.18.46-.54,2.71-1.85,7.5-2.57C373.51,254.54,366.3,267.8,359.26,282.23Z"/><path d="M968.37,188.62c-.33,3.58,23.84,23.21,20.59,58.57C982.13,321.47,955.12,364,952,367c-6.47,6.19,13,10.94,16,11.33s18.76,3.25,26.15-3.82c6.47-6.19,39.47-81.75,51.22-139.16,6.88-8.21,44-25,70.52-25.48-22.24,27.85-68.59,90.38-70.69,139-1.28,29.53,7.61,47.15,25,48.22,31.25,1.92,55.65-39.53,55.79-42.72.08-1.86-9.69-8.87-8.84-28.55,1.69-39,54.46-102.69,55.38-123.85.6-14-26-28.5-36-31.07a14.33,14.33,0,0,0-3.73-.65c-30.94-1.9-68.08,27.6-83.37,39.83,0,.42-.1.85,0,0,2.15-23.44-11.53-45.13-30.7-47.63C990.34,158.72,969,181.27,968.37,188.62Zm160.8,28q2.8-.26,5.48-.32c-22.24,27.85-68.59,90.38-70.69,139a91.82,91.82,0,0,0,1.74,24.11c-3.84-2.63-7.89-9.77-7-29.68,1.3-30.11,25.72-77,67-128.7Zm-121.43,37c-5,54.91-21.11,92.43-30.42,109.5a55.09,55.09,0,0,1-6-.51c10.82-20.47,26-58.75,31-113.63A85.85,85.85,0,0,0,997.13,210C1003.21,219.88,1009.51,234.42,1007.74,253.59Z"/><path d="M1620.37,599.11c26.73,24.12,85.49,22.53,123.61-37.47q2.84-4.47,5.34-9.07c-1.79-9.21-27.59-3.22-36.16-.86h0c-29.29,37.22-56.71,37.59-60.84,33.87-3.79-3.42-.44-29.94,10.89-55,3.2,2.07,8.19,3.76,14.35,4.79h0q1.8.3,3.73.52l.21,0q1.88.21,3.86.34h.19q2,.13,4.19.16h0c16.87.26,37.84-4,55.23-16.39l.73-.53q2.22-1.62,4.35-3.42l.73-.61a74.75,74.75,0,0,0,8.9-9.19c.37-.46.73-.93,1.1-1.4q1.5-1.93,2.9-4c.35-.52.71-1,1.06-1.57,1.21-1.89,2.38-3.83,3.46-5.9h0a4.26,4.26,0,0,0,.36-1.14q.05-.26.09-.53c0-.22,0-.45,0-.68a12.33,12.33,0,0,0-.08-1.84c2-23.37-2.21-42.94-11.69-51.5-21.92-19.78-80.32-37.07-136.45,51.28C1589.16,538.35,1601.66,582.22,1620.37,599.11Zm131-133.73a5.91,5.91,0,0,1,1.67,2.89c3.91,20.24-62.74,52.06-77.66,41h0C1704.33,468.55,1746.37,460.87,1751.37,465.37ZM1631.3,498.69c18.45-29,36.4-44.82,52.12-53-14.39,10.5-29.32,26.39-44.1,49.65-21.24,33.44-22.35,64.34-15.06,86.06C1613.59,566.7,1607.81,535.68,1631.3,498.69Z"/><path d="M1419.2,319.4c3.17-.9,8.57-1.28,15.51-1.22-10.91,103.62-24.92,147.72-23.25,156,4.16,20.8,30.82,30.07,37.78,16.59,11.32-21.93,30.65-71.48,51.47-165.76,36,6,71.36,15.11,78.94,24.39-21,93.81-54.26,177.87-53.43,185.79,2.23,21.21,27.89,33.9,36,21.4,21.24-32.57,121.55-271.07,113.63-346.41-8-76.53-37.58-89.71-55.76-87-36.37,5.43-41.8,33.09-41.22,38.64,0,0,14.06,11.6,15.81,28.25,3,28.5,1.37,60.37-3,92.92-16.85-10.69-46.43-22.27-77.7-31.47,3.39-26.36,7.07-70.53,4.06-85.57-15-75-45.56-84.29-63.39-79.23-35.66,10.12-38.52,38.33-37.43,43.77,0,0,15,9.7,18.3,26,3.53,17.69,2.51,58.77,3,78.88-14.92-1.65-27.4-1.66-35.35.6-13.7,3.89-7.66,30.65-6.83,34.81C1399.19,284.82,1409.74,322.09,1419.2,319.4Zm191.31-30c-1.7-1.08-3.57-2.17-5.52-3.27l.08-.59c4.94-36.9,6-69.69,3.05-97.46a53.38,53.38,0,0,0-2.29-10.73,41.07,41.07,0,0,1,7.67,19.13C1616.49,225,1614.86,256.88,1610.51,289.42ZM1594,156.22c2.06-4.26,6.59-10.24,16.35-14.07a40.11,40.11,0,0,0-12,19.9A69.1,69.1,0,0,0,1594,156.22Zm-1.35,197.36.44-2a20.21,20.21,0,0,1,5.29,4.21c-21,93.81-54.26,177.87-53.43,185.79,0,.19.08.37.1.57a15.16,15.16,0,0,1-5.14-7.27c1.3-5.23,5.57-18.27,9.71-30.92C1561.49,467.89,1579.35,413.33,1592.7,353.58ZM1457.36,241.82c-1.74-.19-3.44-.36-5.11-.5l-.16-6.39c-.13-5-.16-11.67-.19-18.71-.1-22.74-.22-48.51-3.2-63.41-.33-1.64-.74-3.21-1.2-4.74a37.52,37.52,0,0,1,6.84,14.87C1457.87,180.64,1456.85,221.71,1457.36,241.82Zm-20.73-113.66a65.53,65.53,0,0,0-4.84-5.21c1.88-5.08,6.69-12.73,18.86-18A43,43,0,0,0,1436.63,128.17Zm11,196.49c1.81-.07,3.75-.09,5.86-.07-10.12,96.08-22.89,141-23.36,153.62a13.88,13.88,0,0,1-5.23-6.58c.35-3.36,1.93-11.5,3.45-19.4C1433.06,428,1440.83,387.69,1447.64,324.65Zm-38.22-58.2c-1.76-8.58-1.67-13.1-1.41-15.15a46.58,46.58,0,0,1,6.49-.79c-3.08,9.46.1,23.77.69,26.71a212.11,212.11,0,0,0,7,25.37l-1,.11c-3.67-6.57-9.09-22.85-11.63-35.61Z"/><path d="M851,664.88h57.64l3.44,25.31-9.91-2.65H874.67l-2.22,2.65v52.07l2.22,2.65h7.69l9.3-2.89v28.69l-9.3-2.89h-7.69l-2.22,2.65v66.3l2.43,11.33H851l2.43-11.33V676Z"/><path d="M981.26,848.1H957.19l1.62-7.71-5.06-35-2.63-3.13H934.34l-2.63,3.13-4.85,35,1.42,7.71H904.4l4.45-15.67,22.65-157.19-2-10.37h26.29l-2,10.37,22.85,156.95Zm-43.89-69h10.31l2-1.93-7.08-48.94-7.08,48.94Z"/><path d="M988.34,848.1,990.76,837V676.21l-2.43-11.33h50.36l9.71,11.33v80.28l-9.71,11.57,8.29,68.47,3,11.57h-23.87l1.62-10.85-8.09-67-1.62-2.17H1012l-2.22,2.65V837l2.43,11.09ZM1027,745.16l2.22-2.65V690.67L1027,688h-15l-2.22,2.65v51.83l2.22,2.65Z"/><path d="M1112.51,788.07h-9.71l-20-62.44V837l2.43,11.09h-23.86l2.43-11.09V676.21l-2.43-11.33h21.44l24.88,75.46,24.88-75.46H1154l-2.43,11.33V837L1154,848.1h-23.87l2.43-11.09V725.63Z"/></g></g></svg>