<svg xmlns="http://www.w3.org/2000/svg" viewBox="0 0 387.16 528.46"><title>cyborg logo</title><g id="Layer_2" data-name="Layer 2"><g id="Layer_1-2" data-name="Layer 1"><path d="M197.74,0c13.67,1.38,27.1,1.35,39.76,4.44,10.45,2.55,20,8.78,29.94,13.4,10.47,4.88,21,9.71,31.34,14.76A14.48,14.48,0,0,1,304,37c13.76,19.33,27.17,38.9,41.13,58.08a46.33,46.33,0,0,1,9,21.77c2.72,20.69,6,41.31,8.48,62,1.06,8.93.74,18,.89,27.07.07,4.32,1.66,7.45,5.82,9,1.24.46,2.54.8,3.81,1.19,6.53,2,9,4.69,8.59,11.62-.58,10.34-1.52,20.69-2.94,30.95-2.58,18.62-5.64,37.18-8.46,55.77-.94,6.17-.9,6.11-7.34,6.33-5.62.19-11.23.57-17.22.88-1.6,10.14-3.18,20-4.72,30q-5.59,35.76-11.15,71.53c-3.32,21.36-6.71,42.72-9.86,64.11-.44,3-1.75,4.26-4.31,5.31-28.38,11.58-56.71,23.27-85.1,34.84a16.85,16.85,0,0,1-6.05,1c-8.86.1-17.73,0-26.9,0Zm113.7,231c-.17-13-13.77-26.14-25.31-24.73l-2.67,5L280.72,206c-12.88.51-24,11.7-24.89,24.67l4.17,3.11-4.16,2.57c0,12.71,12.25,25.1,24.9,25.29l3-4.79,2.29,4.8c12.4.64,26-12.83,25.5-25l-3.81-3.29Zm-87,4.6c-.51,28.2,26.59,56.11,57.33,54.27,0-6.74-.21-13.53.09-20.3.15-3.34-1.26-4.22-4.16-4.78-12.49-2.4-20.43-10.06-24.41-22a70.19,70.19,0,0,1-1.63-7.23Zm113.87-3.88c1-28.78-25.34-55.6-52.58-55.56v25.85c17.6,2.78,27.13,13,29.82,29.71Zm-93.55,0c3.32-21.49,15.46-33.63,36.75-36.69v-19c-31.16-2.3-59.32,28.27-56.87,55.66Zm93.54,3.85H322.55c-.19.72-.4,1.27-.49,1.85-3.16,19.94-14.35,31.87-34.63,34.84-.83.12-2.13,1.33-2.15,2.07-.19,5.11-.1,10.23-.1,15.33C311.87,289.78,338.37,264.46,338.31,235.58Zm2.81-118.38.53-.61c-16.05-20.91-32.17-41.76-48.09-62.77a30.69,30.69,0,0,0-10.76-8.91c-16.68-8.65-33.25-17.54-49.86-26.33-.91-.48-1.88-.84-2.82-1.25C243.4,27.45,257,36.89,270.6,46.39c5.57,3.9,11.71,7.29,16.42,12.07C298,69.64,308.35,81.52,319,93.1Q330,105.17,341.12,117.2ZM218.66,373.51a8.44,8.44,0,0,0,8.71-8.1,8.7,8.7,0,0,0-8.43-9,8.56,8.56,0,0,0-8.87,8.46A8.25,8.25,0,0,0,218.66,373.51Z"/><path d="M134.09,7.23C115.05,24,99.86,43.58,87.57,65.46c-20.1,35.77-31.39,74.05-31.71,115.26-.07,8.29.8,16.58,1.22,24.87.17,3.31,1.41,5.91,5.09,5.9,5.86,0,11.81.14,17.57-.74,10.52-1.61,20.87-4.46,31.41-5.82a48.82,48.82,0,0,1,35.46,8.75c4.31,3.1,7.47,8.39,10,13.28,7.23,14,8.61,29.4,10,44.79,1.6,17.7,3,35.44,5.51,53,1.15,7.9,4.29,15.71,7.71,23,2.34,5,6.72,9,10.19,13.47l1.15-.79-.64,12.36c-10.27-.36-19.36-9.8-20.52-19.68-3.44-29.42-7.31-58.8-11-88.19-.09-.73-.29-1.45-.4-2.18-1.24-8.58-1.62-9.38-10.21-8.54-6.56.64-13.05,2.51-19.43,4.34-16.5,4.72-32,2.7-46.48-6.45-.49-.31-1-.56-2.24-1.21-2.18,4.41-4.47,8.65-6.41,13-11.74,26.55-11,53.62-1.05,80.15,8.1,21.58,18.09,42.46,27.57,63.51s19,42.24,22.82,65.2c2.07,12.5,2.23,25.33,3.19,38,.08,1.09-.33,2.22-.7,4.53-7-5-13.59-9.2-19.61-14.1C81.26,481,65.64,454.64,55.32,424.83c-10.7-30.9-15.51-62.9-17-95.45-.21-4.58-.91-7.65-6.13-9.45-9.78-3.35-16-11.21-20.37-20.16C.53,276.83-2.27,252.58,1.71,227.46a12.63,12.63,0,0,1,8.84-10.69c8.39-3,9.38-4.75,9-13.85-1.33-29.46.15-58.68,8.07-87.28Q48.51,40.08,121.66,11.78C125.78,10.19,129.95,8.74,134.09,7.23Z"/><path d="M321.19,35.31l12.91-4.75,53.07,96.21-15.51,7.37c-2.55-11.78-4.9-23.16-7.54-34.47a23.67,23.67,0,0,0-3.49-8C348,73.46,335.1,55.35,322.31,37.2,322,36.73,321.72,36.21,321.19,35.31Z"/></g></g></svg>