<?xml version="1.0" encoding="utf-8"?>
<!-- Generator: Adobe Illustrator 21.1.0, SVG Export Plug-In . SVG Version: 6.00 Build 0)  -->
<svg version="1.1" id="Layer_1" xmlns="http://www.w3.org/2000/svg" xmlns:xlink="http://www.w3.org/1999/xlink" x="0px" y="0px"
	 viewBox="0 0 861.6 509.3" style="enable-background:new 0 0 861.6 509.3;" xml:space="preserve">
<style type="text/css">
	.st0{fill:#FFFFFF;}
</style>
<g>
	<path class="st0" d="M47.8,436.7c10.6-5.8,17-15.6,17-29.1c0-10.2,0-14.5-8.9-24.3c-6-6.4-19.5-8.5-34.3-8.5
		c-6.8,0-14.1,1-18.3,2.5c-0.6,0.4-1.9,1-2.1,1.7C0.4,378.7,0,453.3,0,487.6c0,10.6,0.2,14.7,0.4,17c-0.2,1.4,0,3.5,1.2,3.5
		c5.6-0.4,8.5,0,22.2,0c20.3,0,46.3-3.5,46.3-41.7C70,452.9,61.5,442.3,47.8,436.7z M19.9,391c1.4-0.6,2.5-1,4.2-1
		c18.3,0,23,5.2,22.6,20.4c0.8,10.6-7.7,19.1-19.7,19.3c-1.2,0-4.2,1.2-7.1,1.2V391z M22.8,493.2c-1,0-2.1,0-3.3-0.4
		c0.4-4.2,0.4-13.1,0.4-22.2c0-10.6,0-21.2-0.4-25.8h6.4c12.3,0,25.5,5.6,24.5,23.3C52.5,487.6,36.5,493.2,22.8,493.2z"/>
	<path class="st0" d="M136.9,484.8c1-4.6,1.4-11.6,1.4-16.6c-0.2-11-0.2-13.3-0.8-21.6c0.4-14.5-3.5-23.3-9.1-28
		c-4.6-6.4-11-7.7-19.9-8.5c-9.3,0.8-22.2,4.4-24.5,7.5c0.2,2.1,3.5,11.6,3.9,12.9c6.4-2.5,19.3-5.6,20.3-5.6
		c3.9,0,11.4,5,11.4,13.5c0,1.7,0,5.2-0.2,7.5c-26.8,0.4-40.9,13.3-42.6,34.1c1.4,8.9,4.2,17,8.1,21.2c5.4,4.2,11,7.9,15.6,7.9
		c7.3,0,16.2-4.6,21.2-8.9c0.4,2.1,1,4.6,1,5.6c0,0.6,0.4,0.8,0.6,1c0.4,0.2,0.6,0.2,1,0.4c3.5,0.4,12.7-0.2,13.3,0.8
		c1-0.4,1.7-1.2,1.5-1.7C138.3,499.6,138.3,491.1,136.9,484.8z M120.6,478.4c0,1.2-1.7,16-15.8,16c-1.7,0-3.9-0.8-5.4-1.5
		c-2.1-5.6-2.7-7.3-2.7-14.1c0-5,1.7-10.6,3.9-13.1c4.6-3.1,11.6-4.6,20.1-5.2C120,466,120.4,475.3,120.6,478.4z"/>
	<path class="st0" d="M192.5,411.5c-8.5-1.7-15.6,5-20.4,13.5c0-4.4-0.4-8.7-0.2-13.1c-1.4-0.4-4.4-0.4-8.3-0.4
		c-3.3,0-6.9-0.2-6.9,0.2c-0.6,1.9-0.6,10-0.6,12.2c0,4.6,0.4,9.6,0.6,16c-0.6,7.3-0.4,17-0.4,34.3c0,16.2,1,27.8,1.9,33.2h16.4
		c0.6-1.9,0.6-37.6-0.8-51.3c0.2-2.3,1-4.2,1.2-6.6l-0.2-3.7c2.1-8.5,10-17.4,18.1-17.4c2.1,0.6,4.2,1,5.4,1
		c-0.6-4.8-0.8-18.3-1.5-18.9C195.4,410.1,194,410.7,192.5,411.5z"/>
	<path class="st0" d="M240.9,410.5c-25.1,0-40.7,20.4-40.7,50.9c0,15.2,5.4,29.7,11.8,38.2c7.3,5.6,17,8.1,24.7,8.9
		c9.8-0.8,16.4-2.9,19.5-5.4c-0.4-4.2-1.2-9.3-1.2-12c-3.9,0.6-7.3,1.7-10.6,1.7c-1.4,0-3.1,0-5.2-0.4c-4.2,0-6,0-11.4-6
		c-5.2-3.5-8.5-13.1-8.5-24.7v-3.3c0-15.2,8.1-32.2,19.5-32.2h2.9c4.2,0,8.7,1.5,12.2,2.5c-0.4-3.7,1.4-8.7,2.3-14.1
		C252.9,412.2,247.3,410.5,240.9,410.5z"/>
	<path class="st0" d="M315,416.5c-4.6-4.6-11.8-6.4-19.5-6.8c-20.3,1.4-34.7,20.1-34.3,51.9c0,7.1,4.2,47.4,38.6,47.4
		c7.3-0.8,17.9-1.9,23.1-6.2c-0.6-2.5-2.3-12.2-2.7-12.9c-5.6,2.9-15.2,3.9-19.1,3.9c-12.7,0-20.1-10.2-21.6-31.1l44,0.4
		c1.5-0.6,2.7-1.4,3.3-2.5c-0.4-0.8-1-1.7-1.2-4.2C325.6,440.4,324.8,428,315,416.5z M280.6,448.9c-0.4-9.1,3.9-23.3,14.1-23.3
		c0.8-0.6,2.1-0.6,2.9-0.6c2.1,0,3.9,1,4.6,3.1c4.8,3.3,6.9,11,7.3,20.3C305.7,447.5,284.5,448.9,280.6,448.9z"/>
	<path class="st0" d="M358,370.8c-0.4,0.4-2.5,0.4-4.6,0.4l-13.1-0.4c-0.2,1.7,1.2,134.4,0.8,135.2c0.2,1.2,0.8,1.7,1.4,1.9
		c1.5-0.6,3.1-1,7.1-1c2.7,0,6.4,0,8.9-0.2c0-6.9-0.4-12.2-0.4-29.1c0-38.8,0.6-96.8,1.7-104.4C358.8,372.3,358.4,371.7,358,370.8z"
		/>
	<path class="st0" d="M408.1,410.3c-19.1,0-34.3,15.2-34.3,44.6c0,20.8,2.1,35.7,12.3,45.9c6.8,4.2,14.7,6.6,21.6,7.5
		c6.4-0.4,14.5-2.5,21.6-8.5c7.7-9.3,13.1-23.3,13.1-40.3c0-19.5-5-32.6-13.1-42C422.6,413.2,415.9,410.3,408.1,410.3z M423,462
		c0,13.7-4.4,31.1-16,30.7c-3.9,1.2-5.6-1.4-7.3-3.9c-6-3.9-8.5-19.1-8.5-33.6c0-7.1,2.1-20.3,7.3-27.2c4.2-1.5,5.8-3.3,8.9-4.6
		c3.3,1,5.4,2.1,6.8,5.2c7.1,6.4,8.9,17.7,8.9,24.9V462z"/>
	<path class="st0" d="M494.7,409.9c-8.9,0.4-16.4,4.2-21.2,11c-0.2-5.4-1-6.8-0.6-9.5c-2.3,0.4-10.6,1.4-14.7,1
		c-1.2-0.8-2.1-1-2.7-0.6c0.4,2.3,0.8,6.2-0.2,8.7c0.4,2.5,2.1,6.4,2.1,12.2c0,1.7-0.4,3.5-0.4,5.6c-0.6,0-0.6,22-0.6,40.7v28
		c3.7,0.8,14.9,0.8,17.9,1.4c0-11.4,0.8-60.8,1.2-60.2c0.6-1.4,0-7.3,0.6-8.5c0-2.1,2.5-14.5,14.3-14.5c3.1,0,5.2,1.2,6,4.6
		c4.2,2.1,6,8.1,6.4,17.7c-0.4-0.8-1.2,57.3-1.2,58.3c0.8,1.2,1.7,1.9,2.9,1.9c2.9-0.8,5.8-0.8,8.5-0.8c1.4,0,3.1,0.2,4.4,0.4
		c1.5,0.2,2.9,0.4,3.5,0.6l0.6-62.9c0-6.4-4.6-23.3-9.3-28.7C507.1,411.1,500.3,410.7,494.7,409.9z"/>
	<path class="st0" d="M594.5,484.8c1-4.6,1.4-11.6,1.4-16.6c-0.2-11-0.2-13.3-0.8-21.6c0.4-14.5-3.5-23.3-9.1-28
		c-4.6-6.4-11-7.7-19.9-8.5c-9.3,0.8-22.2,4.4-24.5,7.5c0.2,2.1,3.5,11.6,3.9,12.9c6.4-2.5,19.3-5.6,20.3-5.6
		c3.9,0,11.4,5,11.4,13.5c0,1.7,0,5.2-0.2,7.5c-26.8,0.4-40.9,13.3-42.6,34.1c1.4,8.9,4.2,17,8.1,21.2c5.4,4.2,11,7.9,15.6,7.9
		c7.3,0,16.2-4.6,21.2-8.9c0.4,2.1,1,4.6,1,5.6c0,0.6,0.4,0.8,0.6,1c0.4,0.2,0.6,0.2,1,0.4c3.5,0.4,12.7-0.2,13.3,0.8
		c1-0.4,1.7-1.2,1.5-1.7C595.8,499.6,595.8,491.1,594.5,484.8z M578.1,478.4c0,1.2-1.7,16-15.8,16c-1.7,0-3.9-0.8-5.4-1.5
		c-2.1-5.6-2.7-7.3-2.7-14.1c0-5,1.7-10.6,3.9-13.1c4.6-3.1,11.6-4.6,20.1-5.2C577.5,466,577.9,475.3,578.1,478.4z"/>
	<path class="st0" d="M660.6,491.9c6.8-13.1,47.8-103.6,46.7-103.6c1.2-2.7,0.6-9.5,0-11.8c-1.7-1.4-62.9-1-63.3-1.7l-0.4,2.7
		l0.2,14.7h43c-7.5,17.9-45.5,99.7-47.8,103.2c-0.6,1.4,0.4,4.4,0.4,6.2c0,1.7-0.2,4.1-1,5.2c0.8,0.4,68.1,0.4,69.8,0.4
		c1.4-3.3-0.2-15.6-0.6-16C697.5,490.9,666.6,491.1,660.6,491.9z"/>
	<path class="st0" d="M748,410.3c-19.1,0-34.3,15.2-34.3,44.6c0,20.8,2.1,35.7,12.3,45.9c6.8,4.2,14.7,6.6,21.6,7.5
		c6.4-0.4,14.5-2.5,21.6-8.5c7.7-9.3,13.1-23.3,13.1-40.3c0-19.5-5-32.6-13.1-42C762.5,413.2,755.7,410.3,748,410.3z M762.8,462
		c0,13.7-4.4,31.1-16,30.7c-3.9,1.2-5.6-1.4-7.3-3.9c-6-3.9-8.5-19.1-8.5-33.6c0-7.1,2.1-20.3,7.3-27.2c4.2-1.5,5.8-3.3,8.9-4.6
		c3.3,1,5.4,2.1,6.8,5.2c7.1,6.4,8.9,17.7,8.9,24.9V462z"/>
	<path class="st0" d="M848.5,417.4c-6.8-4.2-13.5-7.1-21.2-7.1c-19.1,0-34.3,15.2-34.3,44.6c0,20.8,2.1,35.7,12.3,45.9
		c6.8,4.2,14.7,6.6,21.6,7.5c6.4-0.4,14.5-2.5,21.6-8.5c7.7-9.3,13.1-23.3,13.1-40.3C861.6,440,856.6,426.9,848.5,417.4z M842.1,462
		c0,13.7-4.4,31.1-16,30.7c-3.9,1.2-5.6-1.4-7.3-3.9c-6-3.9-8.5-19.1-8.5-33.6c0-7.1,2.1-20.3,7.3-27.2c4.2-1.5,5.8-3.3,8.9-4.6
		c3.3,1,5.4,2.1,6.8,5.2c7.1,6.4,8.9,17.7,8.9,24.9V462z"/>
	<path class="st0" d="M361,220.8c0,0.1-0.1,0.2-0.1,0.3C361,220.9,361,220.9,361,220.8C361,220.8,361,220.8,361,220.8z"/>
	<path class="st0" d="M426.3,224.5c0-0.1,0-0.2-0.1-0.3c0,0,0,0,0,0C426.2,224.3,426.2,224.4,426.3,224.5z"/>
	<path class="st0" d="M635.1,285.4c-7-3.6-9.9-11.3-10.7-18.2c-1.1-9.4,1.3-18.7,2.1-28c0.9-9.8,0-19.5-5-28.3
		c-4.2-7.5-10.7-14-18-18.9c-17.8-11.9-41-14.4-62.4-12.8c-23,1.7-44.4,11.1-66.9,15.5c-3.1,0.6-6.3,1.1-9.4,1.5
		c-1.4,0.2-2.9,0.3-4.4,0.4c-0.6,0-1.2,0.1-1.8,0.1c-0.1,0-0.7,0-1,0c-1.5-0.1-2.9-0.2-4.3-0.4c-0.2,0-0.4-0.1-0.5-0.1
		c-0.6-0.2-1.2-0.4-1.8-0.6c-0.2-0.1-0.3-0.1-0.5-0.2c-0.4-0.2-0.8-0.5-1.2-0.7c-0.1-0.1-0.4-0.2-0.7-0.4c-0.1-0.1-0.2-0.3-0.5-0.6
		c-0.7-0.8-1.4-1.7-2.1-2.5c-0.1-0.1-0.1-0.1-0.2-0.2c-0.2-0.3-0.3-0.6-0.4-0.8c-0.6-0.9-1.2-2-1.9-2.8c-0.1-0.1-0.1-0.1-0.1-0.1
		c-0.2-0.5-0.4-1-0.6-1.5c-1-2.6-1.9-5.2-3.1-7.8c-0.5-1-0.9-2-1.4-2.9c-0.8-1.5-1.7-2.5-2.9-3.5c0.2-0.4,0.3-0.7,0.5-1.1
		c4.1-8.9,10.2-16.8,15.7-25c5.7-8.5,10.3-17.5,12.9-27.2c2.1-7.7,3.2-15.8,3.3-23.8c3-24.8-2.5-50.9-19.3-70.9
		c-9.3-11-22.1-19.1-36.8-21.2c-1.8-1.4-4.2-2.3-7-2.3c-0.9,0-1.8,0.2-2.6,0.5c-18.1-1.5-34.8,6.3-46.8,18.5
		c-18.4,18.7-26.1,44.4-25.1,69.4c-0.6,8-0.1,16.1,1.3,24c1.8,9.8,5.6,19.1,10.6,28c4.8,8.5,10.2,16.9,13.6,26
		c0.1,0.4,0.3,0.8,0.4,1.1c-1.2,0.8-2.3,1.8-3.2,3.3c-0.6,0.9-1.1,1.9-1.7,2.8c-1.4,2.5-2.5,5-3.7,7.5c-0.2,0.5-0.4,1-0.7,1.4
		c0,0-0.1,0.1-0.2,0.1c-0.8,0.7-1.5,1.8-2.1,2.6c-0.2,0.2-0.3,0.5-0.5,0.7c0,0-0.1,0.1-0.2,0.2c-0.8,0.7-1.5,1.6-2.3,2.3
		c-0.3,0.2-0.4,0.4-0.5,0.5c-0.3,0.2-0.6,0.3-0.7,0.4c-0.4,0.2-0.9,0.4-1.3,0.6c-0.1,0-0.3,0.1-0.5,0.1c-0.6,0.2-1.2,0.3-1.9,0.5
		c-0.1,0-0.3,0-0.5,0c-1.5,0.1-2.9,0.1-4.3,0.1c-0.3,0-0.8,0-1,0c-0.6-0.1-1.2-0.1-1.8-0.2c-1.4-0.2-2.9-0.5-4.3-0.7
		c-3.1-0.6-6.2-1.3-9.3-2.2c-22.1-5.9-42.5-16.8-65.4-20.1c-21.2-3.1-44.5-2.2-63.3,8.4c-7.7,4.4-14.8,10.4-19.6,17.6
		c-5.7,8.5-7.4,18.1-7.3,27.9c0,9.4,1.6,18.8-0.3,28.1c-1.4,6.8-4.9,14.3-12.1,17.4c-2,0.9-3.7,2.6-3.4,4.8c0.3,1.8,2.2,3.3,4.2,2.5
		c9.6-3.5,15.7-11.5,18.6-20.4c3.5-10.6,2.2-21.5,2.1-32.4c-0.1-9.3,1.3-18.4,7.8-25.8c5.3-6.1,13.2-10.1,21.2-12.3
		c22-6.3,43,3.4,63.1,10.5c11,3.9,21.8,8.2,32.9,11.8c10.6,3.5,22,6.8,33.3,7.1c-2.1,0.6-4.2,1.1-6.3,1.5c-0.4,0.1-2.1,0.3-0.2,0
		c-0.5,0.1-1,0.2-1.5,0.2c-1.2,0.2-2.4,0.3-3.6,0.4c-5.8,0.6-11.6,0.6-17.3,0.3c-11.7-0.5-24.1-2.4-36.5-3.4
		c-22.8-1.9-49.4,2.1-61.9,22.1c-6.1,9.8-8.1,21.6-4.2,32.5c3,8.4,7.7,16.2,10.8,24.6c6.1,16.3-6.8,32.1-23.9,36
		c-3.5,0.8-4.5,7.6-0.1,6.9c10.9-1.6,20.3-7.3,26.9-15.3c7.2-8.6,9.4-19.2,9-29.8c-0.4-9.9-2.4-19.7-2.7-29.5c0-0.1,0-0.7,0-1.2
		c0-0.6,0-2.5,0-2.5c0-0.9-0.1-1.9-0.1-2.8c0,0.2,0.1-1.9,0.1-2.4c0.1-1,0.3-2,0.5-3c0-0.2,0-0.4,0.1-0.5c0.1-0.5,0.4-1.1,0.5-1.3
		c0.2-0.4,0.4-0.8,0.5-1.2c0.5-0.7,1-1.4,1.5-2.1c0.1-0.1,0.2-0.2,0.2-0.3c0.3-0.3,0.6-0.5,0.6-0.6c0.3-0.3,1.1-1.2,1.8-1.8
		c-0.1,0.1,0.1,0.1,0.7-0.3c0.5-0.3,1-0.7,1.6-1c1.1-0.6,2.2-1.1,3.3-1.7c-2,1,0.2-0.1,1.2-0.4c1.3-0.5,2.7-0.9,4.1-1.2
		c0.6-0.1,1.2-0.3,1.7-0.4c0.2,0,2.1-0.4,1.7-0.3c1.8-0.3,5.4-0.5,7.9-0.6c12.6-0.4,23.4,1.5,36.3,2.8c7.3,0.7,14.8,1.2,22.3,1.2
		c-2.6,1.6-5.2,3.1-7.8,4.8c-15.7,10-30.9,22.2-40.4,37.6c-4.6,7.5-8.5,15.3-11.7,23.3c-3.6,9.1-6.4,18.8-3.8,28.4
		c2.2,8.1,8.3,14.1,13.3,20.8c3.7,5,7.3,12.4,3,18c-2.9,3.7,2,8.3,5.6,4.7c7-7.1,7-16.8,3.8-25.5c-3-8.2-9.9-15.4-11.5-24
		c-0.7-4.2,0.6-8.2,2.2-12.1c0.9-2.1,1.9-4.1,2.9-6.2c0.1-0.3,1.2-2.2,1.1-2c0.4-0.7,0.8-1.5,1.3-2.2c2.2-3.5,4.6-6.8,7.2-10
		c0.8-1,1.7-2.1,2.6-3.1c0.2-0.2,0.4-0.5,0.6-0.7c0.2-0.2,0.4-0.4,0.7-0.8c0.6-0.6,1.1-1.3,1.7-1.9c0,0,0.1-0.1,0.1-0.1
		c0.3-0.3,1.2-1.4,1.4-1.6c6-6.4,12.1-12.5,19.1-17.8c0.1-0.1,0.7-0.5,1-0.8c0.2-0.1,0.4-0.3,0.4-0.3c0.9-0.6,1.8-1.2,2.7-1.9
		c1.8-1.2,3.7-2.4,5.5-3.6c4-2.5,8.1-5,12.3-7.4c16.5-9.6,32.7-19.4,45.2-33.3c0,0.1-0.1,0.3-0.1,0.4c0,0.1,0,0.2-0.1,0.2
		c0-0.1,0-0.1,0.1-0.2c0,0.1,0,0.1-0.1,0.2c-0.1,0.6-0.2,0.7-0.1,0.3c-0.1,0.3-0.2,0.7-0.3,1c-0.4,1.1-0.9,2.2-1.4,3.3
		c0,0.1-0.1,0.2-0.1,0.2c0,0,0,0,0,0c-0.4,0.7-0.9,1.4-1.3,2c-0.5,0.7-1.1,1.4-1.6,2.1c-0.1,0.1-0.1,0.1-0.1,0.1
		c-1.3,1.3-2.5,2.5-3.9,3.6c-1.2,1-2.5,2-3.7,2.9c-0.3,0.2-0.6,0.4-0.8,0.6c-0.7,0.5-1.4,1-2.1,1.5c-3.1,2.1-6.3,4.1-9.4,6.2
		c-7.6,5.1-14.5,10.4-20.4,17.2c-2.9,3.4-5.2,7.5-6.4,11.7c-0.7,2.5-1.5,5.1-1.6,7.7c-0.1,0.9,0,1.7,0,2.6c0,0.7,0.1,0.4,0.1,0.2
		c0,0.8-0.2,1.7-0.2,2.5c-1.1,16.1,2.9,32.3,4.1,48.4c1.1,14.6,0.4,31.3-11.1,42.6c-3,3,0.4,7.7,3.9,4.5
		c13.2-12.3,15.8-29.8,15.4-46.3c-0.2-8.8-1.3-17.5-1.5-26.3c-0.3-8.4,1.2-16,4.3-23.8c2.9-3.5,5.6-7.3,8.2-10.9
		c0.5-0.6,0.4-0.5-0.2,0.2c-0.9,1-0.7,0.8,0.6-0.6c-0.2,0.2,3-2.9,1.1-1.2c-1.5,1.2,1.1-1.1,1.5-1.5c1.6-1.6,3.3-3,5.1-4.4
		c0.4-0.4,0.9-0.7,1.4-1c0,0,0.1-0.1,0.1-0.1c0.3-0.2,1.3-0.9,1.5-1.1c1.7-1.1,3.4-2.3,5-3.4c3.5-2.3,7-4.6,10.4-7
		c6.9-4.9,23.9-19.2,25.7-21.6c0,0,0.1,0,0.1,0.1c4.8-7,8.2-14.5,10.8-22.3c0.1,0.3,0.2,0.7,0.3,1c2,8,4.7,15.8,9,23.2
		c0,0,0.1,0,0.1-0.1c1.6,2.5,17.4,18,23.8,23.3c3.2,2.7,6.5,5.2,9.8,7.7c1.6,1.2,3.2,2.5,4.8,3.7c0.2,0.2,1.1,0.9,1.4,1.2
		c0,0,0.1,0.1,0.1,0.1c0.4,0.4,0.8,0.8,1.3,1.1c1.7,1.5,3.2,3.1,4.7,4.8c0.3,0.4,2.8,2.9,1.4,1.6c-1.8-1.7,1.1,1.5,1,1.3
		c1.1,1.5,1.3,1.7,0.5,0.7c-0.6-0.8-0.6-0.8-0.2-0.2c2.3,3.8,4.7,7.8,7.3,11.5c2.5,8,3.3,15.7,2.3,24c-1,8.7-2.8,17.3-3.7,26.1
		c-1.7,16.4-0.6,34.1,11.5,47.2c3.2,3.5,7-1.1,4.2-4.2c-10.5-12.1-9.9-28.7-7.5-43.2c2.6-15.9,7.9-31.8,8.1-47.9
		c0-0.8-0.1-1.7,0-2.5c0,0.2,0,0.5,0.1-0.2c0.1-0.9,0.2-1.7,0.2-2.6c0.1-2.6-0.5-5.2-1-7.8c-0.8-4.3-2.7-8.5-5.4-12.1
		c-5.3-7.2-11.8-13-18.9-18.5c-2.9-2.3-5.9-4.5-8.9-6.9c-0.7-0.5-1.3-1.1-2-1.6c-0.2-0.2-0.5-0.5-0.8-0.7c-1.2-1-2.3-2.1-3.4-3.2
		c-1.3-1.3-2.4-2.6-3.6-3.9c0,0,0-0.1-0.1-0.1c-0.5-0.8-1-1.5-1.5-2.2c-0.4-0.7-0.8-1.4-1.2-2.1c0,0,0,0,0,0c0-0.1-0.1-0.2-0.1-0.2
		c-0.4-1.1-0.8-2.3-1.1-3.4c-0.1-0.3-0.2-0.7-0.3-1c0.1,0.5,0,0.3-0.1-0.3c0-0.1,0-0.1,0-0.2c0,0.1,0,0.1,0,0.2c0-0.1,0-0.2,0-0.2
		c0-0.1,0-0.3-0.1-0.4c11.3,14.7,26.7,25.6,42.3,36.4c3.9,2.7,7.8,5.4,11.6,8.2c1.8,1.3,3.5,2.6,5.2,4c0.9,0.7,1.7,1.4,2.5,2
		c0,0,0.2,0.2,0.4,0.3c0.3,0.3,0.8,0.7,0.9,0.8c6.6,5.8,12.2,12.3,17.6,19.1c0.2,0.2,1,1.3,1.3,1.7c0,0.1,0.1,0.1,0.1,0.1
		c0.5,0.7,1,1.4,1.5,2c0.3,0.4,0.5,0.6,0.6,0.8c0.2,0.2,0.4,0.5,0.5,0.7c0.8,1.1,1.5,2.2,2.3,3.2c2.3,3.4,4.5,6.9,6.4,10.5
		c0.4,0.8,0.8,1.5,1.1,2.3c-0.1-0.2,0.8,1.8,0.9,2.1c0.9,2.1,1.7,4.2,2.4,6.3c1.3,4,2.3,8.1,1.2,12.2c-2.3,8.5-9.8,15.2-13.4,23.1
		c-3.9,8.4-4.7,18.1,1.7,25.7c3.2,3.8,8.5-0.4,5.9-4.3c-3.8-5.8,0.4-13,4.5-17.7c5.5-6.4,12.1-11.9,15-19.8
		c3.4-9.4,1.5-19.3-1.4-28.6c-2.5-8.2-5.8-16.3-9.7-24.1c-8.2-16.1-22.3-29.3-37.1-40.3c-2.4-1.8-4.9-3.6-7.3-5.3
		c7.5,0.6,15,0.6,22.4,0.4c13-0.4,23.9-1.6,36.4-0.3c2.5,0.3,6,0.8,7.8,1.2c-0.4-0.1,1.5,0.4,1.7,0.5c0.6,0.2,1.1,0.3,1.7,0.5
		c1.3,0.4,2.7,0.9,3.9,1.5c0.9,0.4,3,1.6,1.1,0.5c1.1,0.7,2.1,1.2,3.2,1.9c0.5,0.3,1,0.7,1.5,1.1c0.6,0.4,0.7,0.4,0.7,0.3
		c0.7,0.7,1.4,1.6,1.7,1.9c0.1,0.1,0.3,0.3,0.6,0.6c0.1,0.1,0.1,0.2,0.2,0.3c0.5,0.7,0.9,1.5,1.3,2.2c0.1,0.4,0.3,0.8,0.4,1.2
		c0.1,0.2,0.3,0.8,0.4,1.3c0,0.2,0,0.4,0,0.5c0.1,1,0.2,2,0.2,3c0,0.5-0.1,2.6-0.1,2.4c-0.1,0.9-0.3,1.9-0.4,2.8
		c0,0-0.1,1.9-0.2,2.5c0,0.5-0.1,1.1-0.1,1.2c-1.1,9.8-3.9,19.4-5.1,29.3c-1.3,10.6,0.1,21.3,6.5,30.4c6,8.4,14.9,14.8,25.6,17.1
		c4.3,0.9,3.8-5.9,0.4-6.9c-16.7-5.1-28.3-21.8-20.9-37.6c3.8-8.1,9.1-15.6,12.8-23.8c4.8-10.5,3.8-22.5-1.5-32.7
		c-10.8-20.8-37-26.6-59.9-26.4c-12.5,0.2-25,1.2-36.6,0.9c-5.8-0.1-11.6-0.6-17.2-1.6c-1.2-0.2-2.4-0.4-3.5-0.7
		c-0.5-0.1-1-0.2-1.5-0.3c1.9,0.4,0.2,0-0.2-0.1c-2.1-0.6-4.1-1.2-6.2-1.9c11.4,0.5,23-2,33.8-4.7c11.4-2.9,22.5-6.4,33.8-9.5
		c20.7-5.7,42.4-13.8,63.8-6.1c7.8,2.8,15.3,7.4,20.1,13.8c5.9,7.9,6.6,17,5.6,26.3c-1.1,10.9-3.2,21.6-0.6,32.4
		c2.2,9.1,7.6,17.4,16.9,21.6c2,0.9,4-0.4,4.4-2.2C638.6,288.2,637,286.4,635.1,285.4z M218.7,242.7c0-0.1,0.1-0.2,0.2-0.3
		C218.8,242.6,218.7,242.7,218.7,242.7z M336.9,190.8C337.3,190.8,337.6,190.7,336.9,190.8L336.9,190.8z M339.4,190.1
		C339.7,190,339.8,190,339.4,190.1L339.4,190.1z M343.3,187c0,0,0.3-0.3,0.6-0.6C343.7,186.7,343.5,186.9,343.3,187z M356.4,229.5
		c0.2-0.3,0.4-0.5,0.5-0.5C356.9,229,356.6,229.3,356.4,229.5z M430.1,233.3c-0.2-0.3-0.4-0.5-0.4-0.5
		C429.7,232.7,429.9,233,430.1,233.3z M446.1,191.2c0.2,0.3,0.6,0.7,0.6,0.7C446.5,191.7,446.3,191.5,446.1,191.2z M450.3,195.2
		C449.9,195,450,195.1,450.3,195.2L450.3,195.2z M452.7,196.1C452,195.9,452.3,196,452.7,196.1L452.7,196.1z M566.3,256.1
		c0,0-0.1-0.1-0.2-0.3C566.2,256,566.2,256.1,566.3,256.1z"/>
</g>
</svg>
