<?xml version="1.0" encoding="utf-8"?>
<!-- Generator: Adobe Illustrator 19.2.0, SVG Export Plug-In . SVG Version: 6.00 Build 0)  -->
<svg version="1.1" xmlns="http://www.w3.org/2000/svg" xmlns:xlink="http://www.w3.org/1999/xlink" x="0px" y="0px" width="252.6px"
	 height="216px" viewBox="0 0 252.6 216" enable-background="new 0 0 252.6 216" xml:space="preserve">
<g id="Layer_1">
</g>
<g id="Isolation_Mode">
	<g>
		<path fill="#010101" d="M102.5,131.1c-3.4-3.6-16.1-13.1-30.6-10c0,0,20.5-28.9,22-51.5c0.1-4.8-4.3-7.1-5.9-7.4
			c-1.5-0.4-12.8-3.5-12.8-3.5s-4-2.3-10.8,3.9c-6.7,6.2-24.1,21.1-34.6,25c0,0-6.6-5.4-18.9-6.7c-4-0.4-5.4,1.3-6.2,2.8
			c-0.8,1.5-2.4,4.2-3.4,7c-0.8,2.3-3.4,4.4,2,8.7c1.4,1.2,10.9,6.4,21.3,5.3c0,0,15.9,48.2,0.8,70.4c-2.4,3.7-2,6.1-2,6.1
			s3.3,29.8,3.8,31.4c0.5,1.6,1.5,6.1,6.8,1s35.6-46.7,5.1-111.2c0,0,23.6-9.1,25.1-10.7c0,0-4.9,20.1-9.6,25
			c-3.5,3.6-1.3,9.9-1.3,9.9s1,4.3,1.1,4.6c0.6,1.9,0.4,3.3,4.6,3.4c5.1,0.1,15.6,6.9,21.2,14.6c5.5,7.7,23-11,23.2-11.4
			S105.9,134.7,102.5,131.1z M10.3,91.8c-3.2-0.9-2.7-2.6-2.7-2.6S8,87.4,9.1,87c2.4-0.7,7.6,4.6,7.6,4.6
			C14.3,92,12.1,92.3,10.3,91.8z"/>
		<g>
			<path fill="#010101" d="M251.3,140.2c-3-4.9-9.3-18.7-29.8-23.8c0,0,2.4-16.5,14-32.4c0.9-1,3-3.5,0-8.9
				c-0.7-1.4-4.8-9.6-5.1-9.8c-0.3-0.2-3.4-4.3-6.7,2.1c-3.3,6.4-7.5,9.7-9.3,28.5c0,0-8.5,6.2-8.5-8.1c-0.1-1.6,0.1-11.9,3.1-16.8
				c3-4.9-4-9.4-4.2-9.6c-0.2-0.2-7.1-5.3-7.1-5.3s-4-3.1-5.6,2.7c-1.5,5.8-5.8,19.5-0.9,35.9c0,0-2.6,5-4.4-1.1
				c-1.8-6.1-6.5-20.6-1.1-39.3c2.7-10.8,13.4-31.9,13.4-31.9s2.2-3.1-0.9-8.6c-1-2-8.7-11.8-10.5-13.1c-1.9-1.3-4.4-2-6.9,4.1
				c-1.9,4.6-9.8,25.1-9.3,56.9c0.2,10.3,0.3,20.7,2.9,32.5c0,0-7,12-15.7,3.3c-4-4-7.3-23.8,3.1-26.3c3.8-0.9,4.8,0.9,5.5,1.6
				c0.7,0.7,2,0.6,2-0.5c-0.1-1.2-0.3-5.1-0.3-5.1s-0.2-1.7-0.9-2.1c-0.9-0.5-22-13.7-27.8,15.3c-1.2,8.6,0.2,16.6,3,21.9
				c0,0-1.9,6.2-4.4,2.8c-4.1-5.6-4.2-16.4-3-23c0.4-2.1,0.4-3.6-2.7-5c-3.1-1.4-7.1-3.2-7.1-3.2s-6.6-2.2-6.7,6.1
				c-0.1,8.3,2.1,22.5,6.3,29.9c1.1,2.2-4,12.7-9.5,5.7c-1.4-2-4.7-6.9-3.8-17.5c0.6-1.7,0.2-4-2.4-6.4s-9.1-7-9.1-7
				s-6.1-3.2-6.7,3.2c-0.6,6.3,0.7,42.8,21.8,40.3c3.7-0.7,7.8-1.8,14.3-12.8c0,0,4.7,2.5,8.9,0.5c1.8-1,3.7-1.1,7.3-9.6
				c0,0,4.7,6.1,18.7,3.3c9-1.8,11.4-9.2,11.4-9.2s1.7,7.3,9.1,5.8c3.9-0.8,6.7-2.8,8.3-7.2c0,0,4,7.3,10.6,7.1
				c5.3-0.2,9.6-5.4,9.6-5.4l-0.8,14c0,0-41.9-8.1-77.5,9.3c-8.6,4.4-53.6,27.8-69.2,70.3c-0.8,2.8,0.2,4.9,5.2,5.5
				s18.6,1.3,21.7,0.9c3.2-0.3,4.2-0.3,7.3-5s24-27.4,70-47.6c11.9-5.2,40.9-14,47.3-15.6c0.7-0.2,1.2-0.7,1.3-1.4l1.1-7.3
				c0,0,7.6,3.5,12,19.5c1.1,4,2.8,4.5,7,4c4.2-0.5,11.9-2,11.9-2S254.3,145.2,251.3,140.2z M211.8,124.9c-7,1.1-51.7,8.6-93.6,34.1
				c0,0,43.5-43.1,94.8-37.7l-0.2,2.5C212.8,124.3,212.4,124.8,211.8,124.9z"/>
		</g>
	</g>
</g>
</svg>
