<?xml version="1.0" encoding="utf-8"?>
<!-- Generator: Adobe Illustrator 19.2.0, SVG Export Plug-In . SVG Version: 6.00 Build 0)  -->
<svg version="1.1" xmlns="http://www.w3.org/2000/svg" xmlns:xlink="http://www.w3.org/1999/xlink" x="0px" y="0px" width="288px"
	 height="288px" viewBox="0 0 288 288" enable-background="new 0 0 288 288" xml:space="preserve">
<g id="Layer_1">
	<g id="Layer_1_1_" display="none">
		
			<rect display="inline" opacity="0.16" fill="none" stroke="#000000" stroke-width="0.5" stroke-miterlimit="10" enable-background="new    " width="57.6" height="57.6"/>
		
			<rect x="57.6" display="inline" opacity="0.16" fill="none" stroke="#000000" stroke-width="0.5" stroke-miterlimit="10" enable-background="new    " width="57.6" height="57.6"/>
		
			<rect x="115.2" display="inline" opacity="0.16" fill="none" stroke="#000000" stroke-width="0.5" stroke-miterlimit="10" enable-background="new    " width="57.6" height="57.6"/>
		
			<rect x="172.8" display="inline" opacity="0.16" fill="none" stroke="#000000" stroke-width="0.5" stroke-miterlimit="10" enable-background="new    " width="57.6" height="57.6"/>
		
			<rect x="230.4" display="inline" opacity="0.16" fill="none" stroke="#000000" stroke-width="0.5" stroke-miterlimit="10" enable-background="new    " width="57.6" height="57.6"/>
		
			<rect y="57.6" display="inline" opacity="0.16" fill="none" stroke="#000000" stroke-width="0.5" stroke-miterlimit="10" enable-background="new    " width="57.6" height="57.6"/>
		
			<rect x="57.6" y="57.6" display="inline" opacity="0.16" fill="none" stroke="#000000" stroke-width="0.5" stroke-miterlimit="10" enable-background="new    " width="57.6" height="57.6"/>
		
			<rect x="115.2" y="57.6" display="inline" opacity="0.16" fill="none" stroke="#000000" stroke-width="0.5" stroke-miterlimit="10" enable-background="new    " width="57.6" height="57.6"/>
		
			<rect x="172.8" y="57.6" display="inline" opacity="0.16" fill="none" stroke="#000000" stroke-width="0.5" stroke-miterlimit="10" enable-background="new    " width="57.6" height="57.6"/>
		
			<rect x="230.4" y="57.6" display="inline" opacity="0.16" fill="none" stroke="#000000" stroke-width="0.5" stroke-miterlimit="10" enable-background="new    " width="57.6" height="57.6"/>
		
			<rect y="115.2" display="inline" opacity="0.16" fill="none" stroke="#000000" stroke-width="0.5" stroke-miterlimit="10" enable-background="new    " width="57.6" height="57.6"/>
		
			<rect x="57.6" y="115.2" display="inline" opacity="0.16" fill="none" stroke="#000000" stroke-width="0.5" stroke-miterlimit="10" enable-background="new    " width="57.6" height="57.6"/>
		
			<rect x="115.2" y="115.2" display="inline" opacity="0.16" fill="none" stroke="#000000" stroke-width="0.5" stroke-miterlimit="10" enable-background="new    " width="57.6" height="57.6"/>
		
			<rect x="172.8" y="115.2" display="inline" opacity="0.16" fill="none" stroke="#000000" stroke-width="0.5" stroke-miterlimit="10" enable-background="new    " width="57.6" height="57.6"/>
		
			<rect x="230.4" y="115.2" display="inline" opacity="0.16" fill="none" stroke="#000000" stroke-width="0.5" stroke-miterlimit="10" enable-background="new    " width="57.6" height="57.6"/>
		
			<rect y="172.8" display="inline" opacity="0.16" fill="none" stroke="#000000" stroke-width="0.5" stroke-miterlimit="10" enable-background="new    " width="57.6" height="57.6"/>
		
			<rect x="57.6" y="172.8" display="inline" opacity="0.16" fill="none" stroke="#000000" stroke-width="0.5" stroke-miterlimit="10" enable-background="new    " width="57.6" height="57.6"/>
		
			<rect x="115.2" y="172.8" display="inline" opacity="0.16" fill="none" stroke="#000000" stroke-width="0.5" stroke-miterlimit="10" enable-background="new    " width="57.6" height="57.6"/>
		
			<rect x="172.8" y="172.8" display="inline" opacity="0.16" fill="none" stroke="#000000" stroke-width="0.5" stroke-miterlimit="10" enable-background="new    " width="57.6" height="57.6"/>
		
			<rect x="230.4" y="172.8" display="inline" opacity="0.16" fill="none" stroke="#000000" stroke-width="0.5" stroke-miterlimit="10" enable-background="new    " width="57.6" height="57.6"/>
		
			<rect y="230.4" display="inline" opacity="0.16" fill="none" stroke="#000000" stroke-width="0.5" stroke-miterlimit="10" enable-background="new    " width="57.6" height="57.6"/>
		
			<rect x="57.6" y="230.4" display="inline" opacity="0.16" fill="none" stroke="#000000" stroke-width="0.5" stroke-miterlimit="10" enable-background="new    " width="57.6" height="57.6"/>
		
			<rect x="115.2" y="230.4" display="inline" opacity="0.16" fill="none" stroke="#000000" stroke-width="0.5" stroke-miterlimit="10" enable-background="new    " width="57.6" height="57.6"/>
		
			<rect x="172.8" y="230.4" display="inline" opacity="0.16" fill="none" stroke="#000000" stroke-width="0.5" stroke-miterlimit="10" enable-background="new    " width="57.6" height="57.6"/>
		
			<rect x="230.4" y="230.4" display="inline" opacity="0.16" fill="none" stroke="#000000" stroke-width="0.5" stroke-miterlimit="10" enable-background="new    " width="57.6" height="57.6"/>
	</g>
</g>
<g id="Isolation_Mode">
	<g>
		<path fill="#FFFFFF" d="M117.5,172.6c-3.8-4.1-18.3-14.9-34.8-11.4c0,0,23.2-32.8,24.9-58.5c0.2-5.5-4.9-8-6.7-8.4
			c-1.8-0.4-14.5-4-14.5-4s-4.6-2.7-12.2,4.4c-7.6,7.1-27.3,24-39.3,28.4c0,0-7.4-6.1-21.5-7.6c-4.5-0.5-6.1,1.5-7,3.2
			c-0.9,1.7-2.7,4.7-3.9,8c-0.9,2.6-3.9,5,2.3,9.9c1.6,1.3,12.4,7.2,24.2,6.1c0,0,18,54.7,0.9,79.9c-2.8,4.2-2.3,6.9-2.3,6.9
			s3.7,33.8,4.3,35.6c0.6,1.8,1.7,6.9,7.7,1.2s40.4-53,5.8-126.3c0,0,26.8-10.3,28.6-12.2c0,0-5.5,22.8-10.9,28.3
			c-4,4.1-1.5,11.2-1.5,11.2s1.2,4.9,1.3,5.3c0.7,2.1,0.5,3.8,5.3,3.8c5.8,0.1,17.8,7.8,24,16.6c6.3,8.8,26.1-12.5,26.3-12.9
			C118.7,179.8,121.4,176.7,117.5,172.6z M12.7,128c-3.7-1-3-3-3-3s0.4-2.1,1.6-2.5c2.8-0.8,8.6,5.3,8.6,5.3
			C17.2,128.2,14.8,128.5,12.7,128z"/>
		<g>
			<path fill="#FFFFFF" d="M286.5,182.9c-3.4-5.6-10.6-21.3-33.8-27c0,0,2.7-18.8,15.9-36.7c1-1.1,3.4-4,0-10.1
				c-0.7-1.6-5.4-10.9-5.7-11.1c-0.3-0.2-3.9-4.8-7.6,2.4c-3.7,7.2-8.5,11-10.6,32.4c0,0-9.6,7.1-9.6-9.2
				c-0.1-1.9,0.1-13.5,3.5-19.1c3.4-5.6-4.5-10.7-4.8-10.9c-0.3-0.2-8.1-6.1-8.1-6.1s-4.6-3.5-6.3,3.1c-1.8,6.6-6.6,22.1-1,40.7
				c0,0-3,5.7-5-1.2c-2-6.9-7.4-23.4-1.2-44.7c3-12.3,15.2-36.2,15.2-36.2s2.5-3.5-1-9.7c-1.1-2.2-9.8-13.4-12-14.9
				c-2.1-1.5-5-2.2-7.8,4.7c-2.1,5.2-11.2,28.5-10.6,64.6c0.2,11.7,0.3,23.5,3.3,36.9c0,0-8,13.6-17.9,3.7c-4.6-4.6-8.3-27,3.6-29.9
				c4.4-1,5.4,1,6.3,1.8c0.8,0.8,2.2,0.7,2.2-0.6c-0.1-1.4-0.4-5.8-0.4-5.8s-0.2-1.9-1.1-2.4C191,97,167,82,160.4,115
				c-1.4,9.8,0.3,18.8,3.4,24.8c0,0-2.2,7.1-5,3.2c-4.7-6.4-4.7-18.6-3.5-26.1c0.5-2.3,0.4-4.1-3-5.7c-3.5-1.6-8.1-3.6-8.1-3.6
				s-7.5-2.5-7.6,6.9c-0.2,9.4,2.4,25.6,7.1,33.9c1.3,2.5-4.5,14.4-10.8,6.5c-1.6-2.3-5.4-7.9-4.4-19.8c0.7-2,0.2-4.6-2.7-7.3
				s-10.3-7.9-10.3-7.9s-7-3.6-7.6,3.6c-0.7,7.2,0.7,48.6,24.8,45.8c4.2-0.8,8.9-2.1,16.2-14.6c0,0,5.3,2.9,10.1,0.5
				c2.1-1.1,4.2-1.2,8.3-10.9c0,0,5.4,7,21.3,3.8c10.2-2,13-10.4,13-10.4s1.9,8.3,10.3,6.5c4.4-0.9,7.6-3.2,9.5-8.2
				c0,0,4.5,8.3,12.1,8.1c6-0.3,10.9-6.1,10.9-6.1l-0.9,15.9c0,0-47.5-9.2-88,10.5c-9.7,5-60.8,31.5-78.6,79.8
				c-0.9,3.1,0.3,5.6,5.9,6.3c5.6,0.7,21.1,1.5,24.7,1.1c3.6-0.4,4.8-0.3,8.3-5.7s27.2-31.1,79.5-54.1c13.5-5.9,46.5-15.9,53.8-17.7
				c0.8-0.2,1.3-0.8,1.4-1.6l1.3-8.3c0,0,8.6,4,13.6,22.1c1.2,4.5,3.1,5.1,7.9,4.6c4.8-0.5,13.6-2.2,13.6-2.2
				S289.9,188.5,286.5,182.9z M241.6,165.5c-8,1.2-58.7,9.8-106.3,38.8c0,0,49.4-48.9,107.7-42.8l-0.2,2.8
				C242.8,164.9,242.3,165.4,241.6,165.5z"/>
		</g>
	</g>
</g>
</svg>
