<svg xmlns="http://www.w3.org/2000/svg" viewBox="0 0 318.98 298.82"><defs><style>.cls-1{fill:#fff;}</style></defs><title>bbf_logo</title><g id="Layer_2" data-name="Layer 2"><g id="Layer_1-2" data-name="Layer 1"><g id="_Group_" data-name="&lt;Group&gt;"><path class="cls-1" d="M145.8,284.4H134.57v13.72h-3.35V269.6H145.8v3.31H134.57v8.18H145.8Z"/><path class="cls-1" d="M170.85,298.12h-3.16V295a10.53,10.53,0,0,1-8,3.82,10.36,10.36,0,0,1-7.73-3.33,11.05,11.05,0,0,1-3.21-7.95,10.89,10.89,0,0,1,3.23-7.91,10.64,10.64,0,0,1,7.89-3.29,9.79,9.79,0,0,1,7.81,3.78v-3.23h3.16Zm-10.91-2.3a7.61,7.61,0,0,0,5.57-2.34,7.91,7.91,0,0,0,2.34-5.83,8,8,0,0,0-2.3-5.84,7.56,7.56,0,0,0-5.63-2.36,7.45,7.45,0,0,0-5.63,2.44,8.28,8.28,0,0,0,0,11.49A7.5,7.5,0,0,0,159.94,295.82Z"/><path class="cls-1" d="M185.27,277.19l-1.68,2.73a2.73,2.73,0,0,0-1.29-.35,2.8,2.8,0,0,0-2.18,1.19,7.9,7.9,0,0,0-1.46,3.12,33,33,0,0,0-.49,7v7.29H174.9V276.88h3.27v2.3a8.23,8.23,0,0,1,2-2.14,3.82,3.82,0,0,1,2.26-.7A6.19,6.19,0,0,1,185.27,277.19Z"/><path class="cls-1" d="M219.52,298.12h-3.27V286.55a17.81,17.81,0,0,0-.33-4.05,4,4,0,0,0-1.44-2.16,4.58,4.58,0,0,0-2.92-.88,5.67,5.67,0,0,0-3.41,1.17,6,6,0,0,0-2.22,3.18,21.31,21.31,0,0,0-.62,5.94v8.38h-3.16V287.25a22.43,22.43,0,0,0-.33-4.6,4,4,0,0,0-1.46-2.3,4.43,4.43,0,0,0-2.84-.9,5.6,5.6,0,0,0-3.25,1.07,6.43,6.43,0,0,0-2.28,2.81,15.93,15.93,0,0,0-.74,5.75v9H188V276.88h3.2v3a8.29,8.29,0,0,1,6.82-3.55,7.2,7.2,0,0,1,4,1.19,6.52,6.52,0,0,1,2.59,3.37,9.43,9.43,0,0,1,3.31-3.39,8.17,8.17,0,0,1,4.21-1.17,7.06,7.06,0,0,1,5.18,2.14q2.14,2.14,2.14,8.07Z"/><path class="cls-1" d="M235.65,279.38l-2.07,2.14q-2.3-2.14-4.21-2.14a2.86,2.86,0,0,0-2,.76,2.45,2.45,0,0,0-.82,1.87,2.56,2.56,0,0,0,.92,1.95A16.53,16.53,0,0,0,230.7,286a12.07,12.07,0,0,1,3.6,2.71,5.39,5.39,0,0,1,1.27,3.62,6.22,6.22,0,0,1-1.89,4.6,6.36,6.36,0,0,1-4.66,1.87,7.87,7.87,0,0,1-6.43-3.27l2-2.26q2.1,2.46,4.29,2.46a3.59,3.59,0,0,0,2.53-1,3,3,0,0,0,1.05-2.28,2.84,2.84,0,0,0-1-2.18,15.33,15.33,0,0,0-3.27-2,10.88,10.88,0,0,1-3.51-2.59,5.64,5.64,0,0,1-1.19-3.74,5.3,5.3,0,0,1,1.69-4,6.18,6.18,0,0,1,4.48-1.64Q232.53,276.34,235.65,279.38Z"/><g id="_Group_2" data-name="&lt;Group&gt;"><path class="cls-1" d="M254.78,84.64C248.46,64.56,238.05,42,220.33,26.73a112.56,112.56,0,0,0-14.19-10.33,114.8,114.8,0,0,0-15.87-7.92,121.34,121.34,0,0,0-34.59-8c-5.93-.41-5.47-.63-11.47-.32l-4.2.2-4.59.45c-3.11.24-6,.82-9,1.27-11.8,2.18-23.45,4.84-34,10.75-21.34,11.69-45.2,34.65-54.93,55.7A127.09,127.09,0,0,0,27.32,101.4a93.66,93.66,0,0,0,.23,33.77A82.64,82.64,0,0,0,40,165.32c6,8.88,12.53,16.44,21.8,21.23a43.63,43.63,0,0,0,14.76,4.54,36.7,36.7,0,0,0,15-1.57,61.72,61.72,0,0,0,23.05-14.67c12.4-12.25,20.24-26.11,26.07-38.63,3.06-6.34,4.51-12.72,6.26-18.36s3.28-10.9,4.86-15.56a162.17,162.17,0,0,1,8.63-21.12c1.2-2.35,2.17-4.12,2.89-5.29l1-1.79-1.12,1.74c-.77,1.13-1.81,2.87-3.12,5.17a162.93,162.93,0,0,0-9.58,20.83c-1.79,4.61-3.63,9.76-5.55,15.4S141.32,129,138.14,135c-6.19,12-14.51,25.32-26.71,36.41-6.08,5.48-13.35,10.2-21.55,12.61a30.63,30.63,0,0,1-12.49.8,37,37,0,0,1-12.3-4.34c-7.81-4.43-13.25-11.38-18.27-19.54a74,74,0,0,1-10.09-27.41,83.8,83.8,0,0,1,1-30.21A115.88,115.88,0,0,1,48.19,73.76C60.12,50.48,78.19,37.43,99.25,27A95.87,95.87,0,0,1,129,17.8c2.59-.28,5.22-.71,7.71-.78l3.77-.24,4.18,0c5.17-.07,4.14.34,9.25.9a103.4,103.4,0,0,1,29.12,8,96,96,0,0,1,12.83,7.05,93.08,93.08,0,0,1,11.26,8.91C221.07,54.52,228.85,74,233.44,91s3.65,34.06.51,48.37a77,77,0,0,1-18,35,99.93,99.93,0,0,1-24.41,19.62A118.89,118.89,0,0,1,173,202.72c-2.19.81-3.87,1.35-4.95,1.68l-1.41.4a24,24,0,0,1,9,18.77c0,.42,0,.84-.06,1.25a28.75,28.75,0,0,1,31-9A124.81,124.81,0,0,0,235.35,191a102.07,102.07,0,0,0,22.34-46.83C261.3,125.37,261.12,104.81,254.78,84.64Z"/></g><path class="cls-1" d="M23.83,233a17.54,17.54,0,0,1,8.27,5.8,14.62,14.62,0,0,1,2.78,8.94,15.47,15.47,0,0,1-5.21,12q-5.21,4.74-13.6,4.74H0V207.08H11.68q9.09,0,13.84,3.72t4.74,10.62A13,13,0,0,1,23.83,233ZM6.66,230.6H9.33q7.06,0,10.54-2.2t3.49-7q0-7.76-10.74-7.76h-6Zm0,27.28h6.43q6,0,8.78-1.18a9.89,9.89,0,0,0,4.39-3.61,8.73,8.73,0,0,0,1.65-4.94,9.63,9.63,0,0,0-1-4.43,10.19,10.19,0,0,0-2.9-3.41,13.15,13.15,0,0,0-4.7-2.23q-2.78-.74-10.07-.75H6.66Z"/><path class="cls-1" d="M46.41,205.67A4.85,4.85,0,0,1,50,207.12a5,5,0,0,1-3.53,8.51,4.74,4.74,0,0,1-3.53-1.49,4.92,4.92,0,0,1,0-7A4.7,4.7,0,0,1,46.41,205.67Zm3.29,58.8H43.19V221.74H49.7Z"/><path class="cls-1" d="M102.38,254.43q0,8.47-1.45,12.54a17.57,17.57,0,0,1-4.39,6.9,19.3,19.3,0,0,1-7.05,4.27,27.09,27.09,0,0,1-9.05,1.45q-16.7,0-22.26-14.11h6.9q4.55,8.15,15.13,8.15a19.53,19.53,0,0,0,8.7-1.88,11.31,11.31,0,0,0,5.41-5q1.57-3.13,1.57-9.64v-.39A20,20,0,0,1,88.5,262a23,23,0,0,1-8.94,1.8,20.82,20.82,0,0,1-15.48-6.35A21.39,21.39,0,0,1,64.44,227a21.69,21.69,0,0,1,15.64-6.39q9.05,0,15.8,7.37v-6.27h6.51Zm-6.27-12a14.88,14.88,0,0,0-4.51-11.13,15.2,15.2,0,0,0-11-4.39A15.57,15.57,0,0,0,69,231.66a15.23,15.23,0,0,0-4.67,11,14.26,14.26,0,0,0,4.47,10.62,15.72,15.72,0,0,0,11.45,4.35,15.75,15.75,0,0,0,11.41-4.27A14.53,14.53,0,0,0,96.11,242.44Z"/><path class="cls-1" d="M156.86,233a17.54,17.54,0,0,1,8.27,5.8,14.62,14.62,0,0,1,2.78,8.94,15.47,15.47,0,0,1-5.21,12q-5.21,4.74-13.6,4.74H133V207.08h11.68q9.09,0,13.84,3.72t4.74,10.62A13,13,0,0,1,156.86,233Zm-17.17-2.43h2.67q7.06,0,10.54-2.2t3.49-7q0-7.76-10.74-7.76h-6Zm0,27.28h6.43q6,0,8.78-1.18a9.89,9.89,0,0,0,4.39-3.61,8.73,8.73,0,0,0,1.65-4.94,9.63,9.63,0,0,0-1-4.43,10.19,10.19,0,0,0-2.9-3.41,13.15,13.15,0,0,0-4.7-2.23q-2.78-.74-10.07-.75h-2.59Z"/><path class="cls-1" d="M219.11,244.24H181.63a16.51,16.51,0,0,0,4.74,11.33,14.3,14.3,0,0,0,10.39,4.27q10.27,0,15.68-10.11l5.49,2.82a26.83,26.83,0,0,1-8.7,10.07,21.56,21.56,0,0,1-12,3.25,21,21,0,0,1-15.91-6.62,23.42,23.42,0,0,1,0-31.95A20.67,20.67,0,0,1,197,220.65,21.12,21.12,0,0,1,212.6,227Q218.87,233.27,219.11,244.24Zm-7.21-5.72a13.77,13.77,0,0,0-5.33-8.54,15.71,15.71,0,0,0-9.56-3.06q-11,0-14.58,11.6Z"/><path class="cls-1" d="M270.53,264.47h-6.35V258.2q-7,7.68-16.07,7.68a20.85,20.85,0,0,1-15.56-6.7,22.23,22.23,0,0,1-6.47-16,21.9,21.9,0,0,1,6.51-15.91,21.41,21.41,0,0,1,15.88-6.62,19.7,19.7,0,0,1,15.72,7.6v-6.51h6.35Zm-22-4.63a15.31,15.31,0,0,0,11.21-4.7,15.91,15.91,0,0,0,4.7-11.72,16.19,16.19,0,0,0-4.62-11.76,15.22,15.22,0,0,0-11.33-4.74,15,15,0,0,0-11.33,4.9,16.66,16.66,0,0,0,.08,23.13A15.09,15.09,0,0,0,248.58,259.84Z"/><path class="cls-1" d="M319,264.47h-6.43V244.09a45,45,0,0,0-.67-9.6,12.62,12.62,0,0,0-2-4.31,7.9,7.9,0,0,0-3.29-2.63,12.27,12.27,0,0,0-4.86-.86,12.13,12.13,0,0,0-5.61,1.41,14.09,14.09,0,0,0-4.7,3.92,14.72,14.72,0,0,0-2.71,5.33q-.75,2.82-.74,11.29v15.84h-6.51V221.74H288v6.43q6.35-7.52,15.05-7.53a15.32,15.32,0,0,1,8.39,2.39,14.79,14.79,0,0,1,5.64,6.58q1.88,4.2,1.88,12.9Z"/><path id="_Path_" data-name="&lt;Path&gt;" class="cls-1" d="M137,142.12s.36,0,.91.09a17.87,17.87,0,0,1,2.24.45,20.54,20.54,0,0,1,6.16,2.77,20.17,20.17,0,0,1,2.78,2.23,19.53,19.53,0,0,1,2,2.3,15.91,15.91,0,0,1,1.22,1.78l.43.69-.52-.63a15.67,15.67,0,0,0-1.42-1.59,19,19,0,0,0-2.24-2,19.16,19.16,0,0,0-2.89-1.76,18.87,18.87,0,0,0-5.94-1.8,13,13,0,0,0-2.72-.12Z"/><path id="_Path_2" data-name="&lt;Path&gt;" class="cls-1" d="M134.74,143.63a16.43,16.43,0,0,0-1-3.24,23.43,23.43,0,0,0-4.08-6.53,23.7,23.7,0,0,0-3-2.88c-.51-.43-1.07-.77-1.57-1.13a31.55,31.55,0,0,0-2.79-1.61l-1-.47-.91-.41.95.31,1.09.36a14.64,14.64,0,0,1,1.38.57,14.88,14.88,0,0,1,1.61.76c.55.32,1.16.6,1.73,1a24.73,24.73,0,0,1,3.46,2.65,25.1,25.1,0,0,1,5.06,6.5,21.83,21.83,0,0,1,1.18,2.51c.25.62.37,1.07.36,1Z"/><path id="_Path_3" data-name="&lt;Path&gt;" class="cls-1" d="M111.34,175s.43,0,1.11.09a22.15,22.15,0,0,1,2.77.52,25.48,25.48,0,0,1,7.67,3.34,25.11,25.11,0,0,1,3.48,2.73c.53.47,1,1,1.41,1.45a15.14,15.14,0,0,1,1.16,1.39,14.81,14.81,0,0,1,.91,1.22l.63,1,.55.85-.64-.79-.73-.91a32.07,32.07,0,0,0-2.29-2.34c-.49-.4-1-.87-1.51-1.26a24.1,24.1,0,0,0-3.6-2.26,23.82,23.82,0,0,0-7.46-2.37,16.71,16.71,0,0,0-3.45-.2Z"/><path id="_Path_4" data-name="&lt;Path&gt;" class="cls-1" d="M108.89,175.8a19,19,0,0,0-1.21-3.72,26.88,26.88,0,0,0-4.72-7.46c-.51-.64-1.13-1.16-1.69-1.74s-1.21-1-1.8-1.53-1.23-.87-1.81-1.29a36.05,36.05,0,0,0-3.2-1.82l-1.19-.53-1-.46,1.08.37,1.25.42a16.72,16.72,0,0,1,1.57.66,17,17,0,0,1,1.83.88c.62.37,1.31.7,2,1.14s1.35.88,2,1.41,1.33,1,1.92,1.64a28.55,28.55,0,0,1,5.71,7.42,24.82,24.82,0,0,1,1.32,2.86c.28.71.41,1.2.4,1.17Z"/><path id="_Path_5" data-name="&lt;Path&gt;" class="cls-1" d="M149.59,104.43s.29,0,.73,0a14.08,14.08,0,0,1,1.8.18,16.17,16.17,0,0,1,5,1.7,15.3,15.3,0,0,1,4.1,3.18,12.42,12.42,0,0,1,1.08,1.29l.39.5-.46-.43a12.14,12.14,0,0,0-1.26-1.08,14.57,14.57,0,0,0-9.06-3.1,9.59,9.59,0,0,0-2.06.19Z"/><path id="_Path_6" data-name="&lt;Path&gt;" class="cls-1" d="M148.69,106.06a9.6,9.6,0,0,0-.78-1.92A14.57,14.57,0,0,0,141,97.53a12.2,12.2,0,0,0-1.54-.62l-.6-.21.63.11a12.42,12.42,0,0,1,1.65.36,15.3,15.3,0,0,1,4.71,2.18,16.17,16.17,0,0,1,3.83,3.7,14.07,14.07,0,0,1,1,1.51c.22.38.34.68.33.65Z"/></g><g id="_Group_3" data-name="&lt;Group&gt;"><path id="_Path_7" data-name="&lt;Path&gt;" class="cls-1" d="M187.18,107.69c-8.32-51.37,5.52-61.69,5.64-61.77l4.65-3-5.53-.29c-44-2.25-87.35,28-87.74,28.3C75.4,90.28,60,111.39,58.42,133.66s11.1,39.1,17.14,45.76c.46.09.92.21,1.38.29a32.51,32.51,0,0,0,4,.29l.09-.1c-.21-.19-20.94-19.22-19-46,1.5-21.11,16.37-41.3,44.22-60,.41-.29,39.74-27.79,80.89-27.79h.79c-4.21,6.08-10.71,22.44-4.28,62.17,5.32,32.85-1.9,61.24-19.31,75.92-15.06,12.7-37.52,14.94-65.17,6.56-1.59.81-3.24,1.53-4.93,2.2,12.77,4.24,24.57,6.38,35.2,6.38,14.87,0,27.45-4.14,37.22-12.38C185,171.43,192.7,141.8,187.18,107.69Z"/></g></g></g></svg>