<svg xmlns="http://www.w3.org/2000/svg" viewBox="0 0 268.76 393.75"><defs><style>.cls-1{fill:#231f20;fill-rule:evenodd;}</style></defs><title>wwf_logo</title><g id="Layer_2" data-name="Layer 2"><g id="Layer_1-2" data-name="Layer 1"><path class="cls-1" d="M234.15,14.17c13.68,0,29.08,14.71,29.08,29.42,0,8.89-11.63,24.63-25,24.63-10.26,0-4.79-14-23.94-18.81-4.1-1.71-5.81-4.45-5.81-8.21,0-15.39,15.73-27,25.65-27Z"/><path class="cls-1" d="M108.76,123.34c0-13,12-28,25.31-28,7.53,0,16.42,6.84,16.42,21.55,0,1.37-15.74,27.36-26.34,27.36-9.58,0-15.39-8.55-15.39-20.87Z"/><path class="cls-1" d="M182.67,124.42l.34-1c3.42-12.32,10.6-19.16,18.47-19.16,10.26,0,21.55,13,21.55,29.07,0,12.66-7.87,21.89-17.44,21.89-7.19,0-10.6-4.45-13.68-13-3.42-9.24-3.76-9.92-9.24-17.79Z"/><path class="cls-1" d="M142.1,165.32c0-4.1,3.08-6.16,7.87-6.16,23.26,0,28.39,5.81,28.39,9.58,0,3.42-1.37,3.76-9.23,5.13-8.21,1.37-7.18,5.81-10.26,5.81s-1-5.13-8.21-7.87c-6.5-2.39-8.55-3.76-8.55-6.5Z"/><path class="cls-1" d="M254.15,104c0,48.91-23.6,71.49-59.86,71.49-14,0-6.84,13.34-21.21,13.34-5.82,0-9.24-6.16-16.08-6.16-3.76,0-7.87,2.05-12.32,2.05-14.37,0-11.29-15.73-16.08-17.79-20.18-8.21-20.52-8.21-24.29-10.6C89.28,146.06,82.78,132,82.78,110.83S91,62.26,104.33,50.28c4.1,2.74,6.5,4.11,8.89,4.11,5.13,0,6.84-7.18,18.47-11.29C146.06,38,146.06,38,146.06,30.44,146.06,10.6,134.43,0,122.12,0,106,0,90.3,13.34,90.3,26.34c0,6.5,3.76,13,8.89,18.47-28.05,17.1-44.47,43.78-44.47,76.28,0,10.95,1.71,14.71,1.71,22.58,0,9.23-3.42,14.71-3.42,23.6,0,4.45,1.78,13.31,4.79,18.47-26.68-19.84-41.39-45.49-41.39-75.25,0-29.42,14-53,38.31-70.12L56.44,39C22.58,53,0,87.91,0,132c0,22.92,6.84,36.6,6.84,43.44,0,2.74-1,8.89-1,16.76,0,14,10.95,40,20.52,52.33,7.53,9.58,19.16,15.05,32.84,15.05,10.6,0,17.79-3.42,17.79-9.24,0-4.1-5.47-13.68-5.82-35.23L90,251.42c17.79,33.86,31.47,44.47,61.23,44.47,12.65,0,20.52-3.76,20.52-10.26,0-5.13-10.26-17.79-10.26-53.36,0-16.08,3.76-24.63,12.66-24.63,6.5,0,9.58,5.47,9.58,17.78,0,18.47-4.45,38.66-4.45,44.47,0,7.52,5.47,12,16.42,12,18.81,0,35.92-11.63,45.15-28.74,13.68-25.31,23.26-74.57,23.26-98.85,0-19.84-4.79-40.36-9.92-50.28Zm-94.62,95.32c-8.21,0-16.08-5.13-17.45-11.29,11.63,2.74,20.87,4.11,31.47,4.11-2.74,4.44-7.18,7.18-14,7.18Z"/><path class="cls-1" d="M259.58,268.29a9,9,0,1,0,9.18,8.9,9.08,9.08,0,0,0-9.18-8.9Zm0,16.16a7.21,7.21,0,1,1,7.43-7.25,7.3,7.3,0,0,1-7.43,7.25Z"/><path class="cls-1" d="M264.3,274.86a2.47,2.47,0,0,0-1.14-2.16,5.1,5.1,0,0,0-2.51-.48h-4.49v10h1.52v-4.62h1.8l2.94,4.62h1.75l-3.12-4.62c1.83-.05,3.25-.79,3.25-2.77Zm-4.95,1.52h-1.67v-3h2.66c1.29,0,2.44.18,2.44,1.47,0,1.8-2,1.55-3.42,1.55Z"/><path class="cls-1" d="M208.15,390.67c6.57,0,8.55-1.71,8.55-6.84V335.25c0-4.79-2.74-6.16-8.89-6.16V326.7h57.12v18.13h-2.4c0-9.58-5.82-13.68-15.73-13.68h-9.58v26h4.45c7.53,0,9.24-4.79,9.58-13h2.39v30.1h-2.39c0-8.21-3.08-13-9.58-13h-4.45v22.23c0,5.82,1.71,7.19,8.55,7.19v2.39H208.15v-2.39Z"/><path class="cls-1" d="M50.9,348.94,34.82,393.75H29.35l-17.1-50.62c-4.45-14-5.95-14-10.26-14v-2.4H34.13v2.4c-5.43.08-5.52,4.19-4.45,7.87L40,368.09l8.9-25c-4.45-14-5.94-14-10.26-14v-2.4H70.74v2.4c-5.43.08-5.52,4.19-4.45,7.87l10.26,31.12,11.63-32.15c1.22-4.66,0-6.5-3.76-6.84v-2.4H100.5v2.4c-4.1,0-6.5,1.71-8.89,8.55l-20.18,56.1H66L50.9,348.94Z"/><path class="cls-1" d="M154.57,348.94l-16.09,44.81H133l-17.1-50.62c-4.45-14-5.95-14-10.26-14v-2.4H137.8v2.4c-5.43.08-5.52,4.19-4.45,7.87l10.26,31.12,8.9-25c-4.45-14-5.94-14-10.26-14v-2.4h32.15v2.4c-5.43.08-5.52,4.19-4.45,7.87l10.26,31.12,11.63-32.15c1.22-4.66,0-6.5-3.76-6.84v-2.4h16.08v2.4c-4.11,0-6.5,1.71-8.89,8.55l-20.18,56.1h-5.47l-15.05-44.81Z"/></g></g></svg>