<svg xmlns="http://www.w3.org/2000/svg" viewBox="0 0 484 525.71"><title>om_resort_logo</title><g id="Layer_2" data-name="Layer 2"><g id="Layer_1-2" data-name="Layer 1"><g id="mountian_resort" data-name="mountian resort"><path d="M64.05,503.27v-1.92h7.8l8.07,15.32,8.24-15.32h7.35v1.92H92.4v20.11h3.11v1.92H85.6v-1.92h3.11V508.13a6.62,6.62,0,0,0,.05-.8q0-.63.05-1.35t.07-1.85h-.31l-1.47,3.66-7,12.38H78l-6.84-12.38-1.5-4h-.34v2.12q0,.79,0,1.49t0,.74v15.25h3v1.92H64.05v-1.92h3.11V503.27Z"/><path d="M98.56,513.33a14.46,14.46,0,0,1,.82-4.94,11.26,11.26,0,0,1,2.38-3.93,10.67,10.67,0,0,1,3.83-2.58,15,15,0,0,1,10.38,0,10.82,10.82,0,0,1,3.86,2.58,11.14,11.14,0,0,1,2.39,3.93,15.29,15.29,0,0,1,0,9.88,11.13,11.13,0,0,1-2.39,3.93,10.81,10.81,0,0,1-3.86,2.58,15,15,0,0,1-10.38,0,10.66,10.66,0,0,1-3.83-2.58,11.25,11.25,0,0,1-2.38-3.93A14.45,14.45,0,0,1,98.56,513.33Zm4.28,0a16.33,16.33,0,0,0,.5,4.1,9.65,9.65,0,0,0,1.52,3.32,7.47,7.47,0,0,0,2.58,2.22,7.77,7.77,0,0,0,3.68.82,6.71,6.71,0,0,0,3.39-.82,7,7,0,0,0,2.38-2.22,10.47,10.47,0,0,0,1.42-3.32,16.9,16.9,0,0,0,.48-4.1,16.33,16.33,0,0,0-.5-4.1,9.65,9.65,0,0,0-1.52-3.32,7.48,7.48,0,0,0-2.58-2.22,7.86,7.86,0,0,0-3.71-.82,7,7,0,0,0-3.51.82,6.83,6.83,0,0,0-2.38,2.22,9.65,9.65,0,0,0-1.33,3.32A19.6,19.6,0,0,0,102.83,513.33Z"/><path d="M146.89,520.91a7,7,0,0,1-1.83,2.63,7.61,7.61,0,0,1-2.86,1.56,12.71,12.71,0,0,1-3.73.51q-4.86,0-7.4-1.93t-2.55-6V503.27h-3.11v-1.92h9.78v1.92h-2.84V517a8.76,8.76,0,0,0,.44,3,4.65,4.65,0,0,0,1.28,1.95,5,5,0,0,0,2.07,1.06,11,11,0,0,0,2.8.32,6.83,6.83,0,0,0,4.7-1.5q1.69-1.51,1.69-4.93V503.27h-2.84v-1.92h8.14v1.92h-3.11v13.85A10,10,0,0,1,146.89,520.91Z"/><path d="M169.6,501.36H178v1.92H174.9v22.44h-2.22l-13.92-18.78-1.5-2.63h-.14l.34,2.67v16.42h3.11v1.92h-8.41v-1.92h3.11V503.27h-3.11v-1.92H159l12,16.11,1.78,2.94h.17l-.21-2.94V503.27H169.6Z"/><path d="M196.48,525.3H185.6v-1.92h3.52V503.27H183l-.68.75v4.41h-2.46v-7.08h22.37v7.08h-2.46V504l-.68-.75H193v20.11h3.52Z"/><path d="M214.81,525.3H204.75v-1.92h3.11V503.27h-3.11v-1.92h10.06v1.92H211.7v20.11h3.11Z"/><path d="M225,525.3h-8.38v-1.92h2.67l8.86-22h3.63l8.11,22h2.56v1.92h-9.78v-1.92h3l-2.22-6h-9.1l-2.33,6H225Zm.17-9.85h7.73l-2.8-7.9-.85-3.63h-.14l-1,3.69Z"/><path d="M260.95,501.36h8.41v1.92h-3.11v22.44H264l-13.92-18.78-1.5-2.63h-.14l.34,2.67v16.42h3.11v1.92H243.5v-1.92h3.11V503.27H243.5v-1.92h6.84l12,16.11,1.78,2.94h.17l-.21-2.94V503.27h-3.11Z"/><path d="M287.86,523.39h3v1.92h-9.92v-1.92H284V503.27h-3.11v-1.92h3.45q1.54,0,3.35-.14t3.56-.14a15.31,15.31,0,0,1,3.54.39,8.46,8.46,0,0,1,2.86,1.22,6,6,0,0,1,1.9,2.11,6.31,6.31,0,0,1,.7,3.06,6.13,6.13,0,0,1-1.52,4.2,8.24,8.24,0,0,1-4,2.45l6.81,8.87h2.12v1.92h-5.54L291.35,515h-3.49Zm2.7-10.12a5.66,5.66,0,0,0,4.12-1.45,5.22,5.22,0,0,0,1.49-3.93,4.33,4.33,0,0,0-1.57-3.72,6.82,6.82,0,0,0-4.17-1.17,13.33,13.33,0,0,0-1.49.07l-1.08.14v10.05Z"/><path d="M323.33,501.36V507h-2.19V504l-.68-.75h-8.38v8.86h5.78l.51-.51v-1.44h2.19V516h-2.19V514.6l-.51-.55h-5.78v9.34h9l.68-.68v-3.35h2.19v6H305.14v-1.92h3.11V503.27h-3.11v-1.92Z"/><path d="M330.41,521.95l.62.82a5.22,5.22,0,0,0,1.69.74,9.1,9.1,0,0,0,2.38.29,9.51,9.51,0,0,0,2.27-.26,5.9,5.9,0,0,0,1.83-.77,3.73,3.73,0,0,0,1.23-1.3,3.77,3.77,0,0,0,.44-1.88,3.13,3.13,0,0,0-.94-2.33,9.49,9.49,0,0,0-2.34-1.64q-1.4-.72-3-1.4a18.32,18.32,0,0,1-3-1.61,8.9,8.9,0,0,1-2.34-2.22,5.46,5.46,0,0,1-.94-3.28,5.31,5.31,0,0,1,2.21-4.53,9.86,9.86,0,0,1,6-1.62,23.34,23.34,0,0,1,4.07.31,13.54,13.54,0,0,1,2.91.82V508h-2.19v-3.69l-.55-.85a7.09,7.09,0,0,0-1.88-.41,22.09,22.09,0,0,0-2.43-.14,5,5,0,0,0-3.21.94,3.22,3.22,0,0,0-1.16,2.65,3.18,3.18,0,0,0,.94,2.34,9.87,9.87,0,0,0,2.34,1.69q1.4.75,3,1.45a20.32,20.32,0,0,1,3,1.61,8.94,8.94,0,0,1,2.34,2.17,5.13,5.13,0,0,1,.94,3.15,5.78,5.78,0,0,1-2.56,5.08,12.22,12.22,0,0,1-7,1.76,15.28,15.28,0,0,1-4.21-.51,9,9,0,0,1-2.6-1.09v-6.22h2.19Z"/><path d="M348.43,513.33a14.46,14.46,0,0,1,.82-4.94,11.26,11.26,0,0,1,2.38-3.93,10.67,10.67,0,0,1,3.83-2.58,15,15,0,0,1,10.38,0,10.82,10.82,0,0,1,3.86,2.58,11.14,11.14,0,0,1,2.39,3.93,15.29,15.29,0,0,1,0,9.88,11.13,11.13,0,0,1-2.39,3.93,10.81,10.81,0,0,1-3.86,2.58,15,15,0,0,1-10.38,0,10.66,10.66,0,0,1-3.83-2.58,11.25,11.25,0,0,1-2.38-3.93A14.45,14.45,0,0,1,348.43,513.33Zm4.28,0a16.33,16.33,0,0,0,.5,4.1,9.65,9.65,0,0,0,1.52,3.32,7.47,7.47,0,0,0,2.58,2.22,7.77,7.77,0,0,0,3.68.82,6.71,6.71,0,0,0,3.39-.82,7,7,0,0,0,2.38-2.22,10.47,10.47,0,0,0,1.42-3.32,16.9,16.9,0,0,0,.48-4.1,16.33,16.33,0,0,0-.5-4.1,9.65,9.65,0,0,0-1.52-3.32,7.48,7.48,0,0,0-2.58-2.22,7.86,7.86,0,0,0-3.71-.82,7,7,0,0,0-3.51.82,6.83,6.83,0,0,0-2.38,2.22,9.65,9.65,0,0,0-1.33,3.32A19.6,19.6,0,0,0,352.71,513.33Z"/><path d="M382.91,523.39h3v1.92H376v-1.92h3.11V503.27H376v-1.92h3.45q1.54,0,3.35-.14t3.56-.14a15.31,15.31,0,0,1,3.54.39,8.46,8.46,0,0,1,2.86,1.22,6,6,0,0,1,1.9,2.11,6.31,6.31,0,0,1,.7,3.06,6.13,6.13,0,0,1-1.52,4.2,8.24,8.24,0,0,1-4,2.45l6.81,8.87h2.12v1.92H393.2L386.4,515h-3.49Zm2.7-10.12a5.66,5.66,0,0,0,4.12-1.45,5.22,5.22,0,0,0,1.49-3.93,4.33,4.33,0,0,0-1.57-3.72,6.82,6.82,0,0,0-4.17-1.17,13.33,13.33,0,0,0-1.49.07l-1.08.14v10.05Z"/><path d="M414.54,525.3H403.67v-1.92h3.52V503.27h-6.12l-.68.75v4.41h-2.46v-7.08h22.37v7.08h-2.46V504l-.68-.75H411v20.11h3.52Z"/></g><g id="opeongo"><path d="M0,457A38.73,38.73,0,0,1,2.2,443.8a30.16,30.16,0,0,1,6.37-10.54,28.6,28.6,0,0,1,10.26-6.92,36.65,36.65,0,0,1,13.88-2.47,37,37,0,0,1,13.93,2.47A29,29,0,0,1,57,433.26a29.84,29.84,0,0,1,6.41,10.54,41,41,0,0,1,0,26.48A29.81,29.81,0,0,1,57,480.82a29,29,0,0,1-10.35,6.92,37,37,0,0,1-13.93,2.47,36.65,36.65,0,0,1-13.88-2.47,28.58,28.58,0,0,1-10.26-6.92A30.13,30.13,0,0,1,2.2,470.28,38.72,38.72,0,0,1,0,457Zm11.45,0a43.72,43.72,0,0,0,1.33,11,25.83,25.83,0,0,0,4.08,8.89,20,20,0,0,0,6.92,6,20.83,20.83,0,0,0,9.85,2.2,18,18,0,0,0,9.07-2.2,18.85,18.85,0,0,0,6.37-6,28.05,28.05,0,0,0,3.8-8.89,45.24,45.24,0,0,0,1.28-11,43.8,43.8,0,0,0-1.33-11,25.87,25.87,0,0,0-4.08-8.89,20.05,20.05,0,0,0-6.92-6,21,21,0,0,0-9.94-2.2,18.82,18.82,0,0,0-9.39,2.2,18.3,18.3,0,0,0-6.37,6A25.86,25.86,0,0,0,12.55,446,52.43,52.43,0,0,0,11.45,457Z"/><path d="M73.76,430.1V425h9.53q4.12,0,8.93-.37t9.3-.37a50.84,50.84,0,0,1,9.9,1,26.2,26.2,0,0,1,8.61,3.25,18.18,18.18,0,0,1,6.09,6.09,17.82,17.82,0,0,1,2.34,9.48,17.48,17.48,0,0,1-2.38,9.3,19.54,19.54,0,0,1-6.28,6.37,28.87,28.87,0,0,1-9,3.67,45.84,45.84,0,0,1-10.49,1.19H98.69q-1.1,0-2.34,0T94,464.37q-1.1-.09-1.65-.18V484h9.16v5.13H73.76V484H82.1V430.1ZM92.36,459a4.65,4.65,0,0,0,1.42.23q1,0,2.06.14t2.15.09h1.6a25.22,25.22,0,0,0,6.73-.87,15.89,15.89,0,0,0,5.54-2.7,12.68,12.68,0,0,0,3.76-4.76A16.52,16.52,0,0,0,117,444q0-7.51-4.72-11.09t-12.87-3.57q-2.47,0-4.12.14a23.27,23.27,0,0,0-2.93.41Z"/><path d="M183.63,425v15h-5.86v-7.88l-1.83-2H153.48v23.73H169l1.37-1.37v-3.85h5.86v15.67h-5.86v-3.85L169,459H153.48v25h24l1.83-1.83v-9h5.86v15.94H134.88V484h8.34V430.1h-8.34V425Z"/><path d="M196.28,457a38.73,38.73,0,0,1,2.2-13.24,30.16,30.16,0,0,1,6.37-10.54,28.6,28.6,0,0,1,10.26-6.92,40.32,40.32,0,0,1,27.81,0,29,29,0,0,1,10.35,6.92,29.84,29.84,0,0,1,6.41,10.54,41,41,0,0,1,0,26.48,29.81,29.81,0,0,1-6.41,10.54,29,29,0,0,1-10.35,6.92,40.31,40.31,0,0,1-27.81,0,28.58,28.58,0,0,1-10.26-6.92,30.13,30.13,0,0,1-6.37-10.54A38.72,38.72,0,0,1,196.28,457Zm11.45,0a43.72,43.72,0,0,0,1.33,11,25.83,25.83,0,0,0,4.08,8.89,20,20,0,0,0,6.92,6,20.83,20.83,0,0,0,9.85,2.2,18,18,0,0,0,9.07-2.2,18.85,18.85,0,0,0,6.37-6,28.05,28.05,0,0,0,3.8-8.89,45.24,45.24,0,0,0,1.28-11,43.8,43.8,0,0,0-1.33-11,25.87,25.87,0,0,0-4.08-8.89,20.05,20.05,0,0,0-6.92-6,21,21,0,0,0-9.94-2.2,18.82,18.82,0,0,0-9.39,2.2,18.3,18.3,0,0,0-6.37,6,25.86,25.86,0,0,0-3.57,8.89A52.43,52.43,0,0,0,207.73,457Z"/><path d="M316.77,425h22.54v5.13H331v60.11h-6L287.72,439.9l-4-7.06h-.37l.92,7.15v44h8.34v5.13H270V484h8.34V430.1H270V425h18.33l32.07,43.16L325.2,476h.46l-.55-7.88v-38h-8.34Z"/><path d="M403.55,484.71a37,37,0,0,1-4.4,2.11,44.54,44.54,0,0,1-5.18,1.74q-2.7.73-5.45,1.19a32.39,32.39,0,0,1-5.31.46,53.39,53.39,0,0,1-15.17-2,29,29,0,0,1-11.23-6,25.85,25.85,0,0,1-7-10.35,41.63,41.63,0,0,1-2.38-14.8,36.69,36.69,0,0,1,2.89-15.3A28.74,28.74,0,0,1,358,431.43,29.7,29.7,0,0,1,369,425.65a45.51,45.51,0,0,1,12.69-1.79,56.41,56.41,0,0,1,11.18.92,38.6,38.6,0,0,1,7.88,2.47v15.67h-5.86v-9.62l-1.28-1.83a8.81,8.81,0,0,0-2.11-.78q-1.28-.32-2.7-.55t-2.93-.32q-1.51-.09-2.8-.09a28.07,28.07,0,0,0-9.44,1.56,20,20,0,0,0-7.65,4.86,23.06,23.06,0,0,0-5.13,8.48A36.5,36.5,0,0,0,358.92,457q0,13,6.46,20.16t18.56,7.15a28,28,0,0,0,5.18-.41,21.89,21.89,0,0,0,3.8-1.05l1.37-1.65V463.91h-9.71v-5.13H410v5.13h-6.41Z"/><path d="M418.39,457a38.73,38.73,0,0,1,2.2-13.24A30.16,30.16,0,0,1,427,433.26a28.6,28.6,0,0,1,10.26-6.92,40.32,40.32,0,0,1,27.81,0,29,29,0,0,1,10.35,6.92,29.84,29.84,0,0,1,6.41,10.54,41,41,0,0,1,0,26.48,29.81,29.81,0,0,1-6.41,10.54A29,29,0,0,1,465,487.74a40.31,40.31,0,0,1-27.81,0A28.58,28.58,0,0,1,427,480.82a30.13,30.13,0,0,1-6.37-10.54A38.72,38.72,0,0,1,418.39,457Zm11.45,0a43.72,43.72,0,0,0,1.33,11,25.83,25.83,0,0,0,4.08,8.89,20,20,0,0,0,6.92,6,20.83,20.83,0,0,0,9.85,2.2,18,18,0,0,0,9.07-2.2,18.85,18.85,0,0,0,6.37-6,28.05,28.05,0,0,0,3.8-8.89,45.24,45.24,0,0,0,1.28-11,43.8,43.8,0,0,0-1.33-11,25.87,25.87,0,0,0-4.08-8.89,20.05,20.05,0,0,0-6.92-6,21,21,0,0,0-9.94-2.2,18.82,18.82,0,0,0-9.39,2.2,18.3,18.3,0,0,0-6.37,6,25.86,25.86,0,0,0-3.57,8.89A52.43,52.43,0,0,0,429.84,457Z"/></g><path d="M374.84,241.1a11.37,11.37,0,0,0-7.54,2.69,11.78,11.78,0,0,0-3.95,9.41,16.86,16.86,0,0,0,4.21,10.53,16.44,16.44,0,0,0,12.14,6,11.38,11.38,0,0,0,7.54-2.69,11.78,11.78,0,0,0,3.95-9.41A16.86,16.86,0,0,0,387,247,16.44,16.44,0,0,0,374.84,241.1Zm10.84,24.08a9,9,0,0,1-6,2.12,14,14,0,0,1-10.33-5.12,14.47,14.47,0,0,1-3.63-9,9.43,9.43,0,0,1,3.11-7.55,9,9,0,0,1,6-2.12,14,14,0,0,1,10.32,5.12,14.47,14.47,0,0,1,3.63,9A9.43,9.43,0,0,1,385.68,265.18Z"/><path d="M228,291.39a16.39,16.39,0,0,1-2.75,0,33.85,33.85,0,0,1-3.53-.54l-2-.47-2.1-.61c-.72-.2-1.45-.49-2.19-.73l-1.13-.39-1.14-.44-2.33-.91-2.36-1c-1.6-.64-3.16-1.46-4.76-2.19s-3.15-1.57-4.7-2.34l-.29-.15-.14-.07-.1,0,0,0-.08,0-.6-.25c-.41-.16-.78-.33-1.21-.47-.84-.29-1.66-.57-2.47-.78a33.84,33.84,0,0,0-4.75-1,37.5,37.5,0,0,0-4.32-.36,30.67,30.67,0,0,0-6.44.49,11.54,11.54,0,0,0-1.74.49l-.58.27.61-.18.75-.14,1-.12a25.56,25.56,0,0,1,2.77-.09c1.07,0,2.27.1,3.58.21s2.71.32,4.18.62a41.23,41.23,0,0,1,4.55,1.15c.78.23,1.54.52,2.31.81.38.14.78.33,1.18.5l.6.25.07,0h0l.13.07.29.15c1.56.79,3.12,1.64,4.72,2.41s3.21,1.53,4.85,2.17l2.41,1,2.4.85c.78.29,1.57.55,2.35.75s1.52.46,2.28.63l2.18.5,2.07.33a24.84,24.84,0,0,0,3.66.23,16.84,16.84,0,0,0,2.81-.27,7.47,7.47,0,0,0,1.72-.57,2.36,2.36,0,0,0,.55-.33,2.34,2.34,0,0,1-.58.25A9,9,0,0,1,228,291.39Z"/><path d="M219.19,294.22c-.59-.11-1.21-.19-1.84-.34l-1.95-.45-2-.59c-.69-.21-1.38-.47-2.09-.71s-1.42-.52-2.13-.81-1.44-.56-2.15-.91l-2.16-1c-.73-.33-1.42-.73-2.13-1.09-1.43-.71-2.82-1.52-4.19-2.31l-1.07-.61-1.05-.53c-.7-.34-1.49-.65-2.21-.91a27.17,27.17,0,0,0-4.33-1.14,31.61,31.61,0,0,0-4-.45,28.05,28.05,0,0,0-3.35,0c-1,0-1.86.14-2.57.24a14.67,14.67,0,0,0-1.63.31l-.56.16.58-.07c.38,0,.93-.06,1.64-.08a38.89,38.89,0,0,1,5.8.38c1.19.16,2.46.4,3.79.7a34,34,0,0,1,4.07,1.28c.69.28,1.33.56,2,.92l1,.55,1,.58c1.39.81,2.78,1.67,4.25,2.39.73.36,1.45.76,2.19,1.09l2.22,1c.73.35,1.5.58,2.23.87s1.47.55,2.21.76,1.45.47,2.18.63l2.12.49,2,.34c.66.1,1.3.14,1.91.2a23.24,23.24,0,0,0,5.92-.26,9.51,9.51,0,0,0,2.15-.62,11.59,11.59,0,0,1-2.19.32A25.44,25.44,0,0,1,219.19,294.22Z"/><path d="M176.23,295.85c-.81-.13-1.52-.22-2.1-.3-1.17-.15-1.85-.22-1.85-.22s.62.26,1.73.68c.55.2,1.23.46,2,.73l1.24.43,1.39.4c1,.28,2,.58,3.16.87s2.33.53,3.57.77,2.54.46,3.86.64,2.67.32,4,.45,2.71.14,4,.2,2.66,0,3.93-.05,2.5-.16,3.66-.32l1.69-.22,1.57-.3c1-.18,1.91-.43,2.71-.65s1.48-.46,2-.66,1-.4,1.27-.53l.44-.21-.48.09c-.31.06-.77.12-1.35.2s-1.29.15-2.09.23-1.72.14-2.71.19-2.07.08-3.21.1-2.34,0-3.57,0-2.52-.08-3.82-.15-2.62-.12-3.94-.27-2.64-.18-3.93-.36-2.58-.23-3.81-.43-2.43-.3-3.57-.45-2.2-.33-3.2-.46S177,296,176.23,295.85Z"/><path d="M169.19,301.49s.71.24,2,.62c.63.19,1.39.42,2.27.66s1.89.44,3,.68,2.3.51,3.58.64,2.63.38,4,.48,2.86.23,4.34.24,3,0,4.49,0,3-.15,4.48-.33c.74-.07,1.47-.16,2.19-.25l2.12-.34c1.4-.19,2.72-.53,4-.79s2.44-.61,3.52-.94,2.06-.65,2.92-1,1.59-.63,2.2-.88c1.2-.53,1.86-.9,1.86-.9l-.52.13-1.48.32c-.64.12-1.41.29-2.3.45s-1.89.33-3,.52-2.28.33-3.53.53-2.58.33-3.95.46l-2.09.21c-.71,0-1.42.09-2.14.16-1.44.15-2.91.17-4.37.24s-2.93.07-4.38.11l-4.25,0-4-.15c-1.27,0-2.46-.16-3.57-.22s-2.13-.1-3-.22-1.69-.17-2.33-.22C169.94,301.53,169.19,301.49,169.19,301.49Z"/><path d="M183.48,294.41l.69.28a14.14,14.14,0,0,0,1.58.57c.57.18,1.17.35,1.79.49a32.67,32.67,0,0,0,4,.66,36.13,36.13,0,0,0,7.46,0,23.87,23.87,0,0,0,2.46-.36c.59-.12.93-.22.93-.22s-.33-.11-.92-.26-1.41-.35-2.41-.53c-2-.4-4.63-.75-7.27-1l-2-.2-1.9-.18-3.37-.3c-.5,0-1-.09-1.35-.14s-.77-.07-1-.14c-.58-.1-.94-.14-.94-.14s.26.22.76.58a6.52,6.52,0,0,0,.95.56Z"/><ellipse cx="377.27" cy="255.39" rx="8.29" ry="10.07" transform="translate(-75.31 307.61) rotate(-40.68)"/><path d="M331.22,238.13c1.63-.5,3.15-.9,4.49-1.22a69.21,69.21,0,0,0-9,2.45h0l0,.16a32.1,32.1,0,0,0-7.7,3.43h-.81v-.36c-7.78,4.3-15.9,11.39-17.71,22.87-4,25.38,16.38,39.65,16.38,39.65l.71-1.86s2.41-9.75,4.62-9.87c0,0-2.5-5.64-6,4.51-1.4-1.29-5.55-5.3-6.45-8.22-.29-.95-.49-1.13-.62-.91-17.24-42.43,25.69-48.38,25.69-48.38l.47-2.5-5.84,1.46a44.39,44.39,0,0,1,5.85-1.52l.47-.93Z"/><path d="M414,275.3l-5.48-2.09s-4.39-9.49-7.74-11.22h0c.77-18.92-21-26.56-22.09-27.23h.24c-.08,0,0-.25,0-.25l.14-.19h0c-2.18-6.05-17.73-54.14-69.93-81.88L297.6,117.7l-1.19,3.3s-1.41,3.81-4.46,4.34c-2.64.46-6-1.63-9.72-6.08l-1.57-1.88-.52,2.4s-.73,3.08-3,3.65c-1.5.38-5-.1-11.43-7.6l-1.4-1.62-.66,2s-.91,2.76-2.93,3.09-5.1-2-8.45-6.49l-1.25-1.7-.82,1.95c-.5,1.19-2.42,4.62-4.6,4.81-1.72.15-3.34-1.81-4.4-3.48l-1.46-2.28-.72,2.61c-.35,1.26-1.71,4.63-3.85,5.06-1.64.33-3.76-1.1-6.12-4.14l-2-2.61-.12,3.3c0,1.19-.58,4.75-2.41,5.45-.94.36-3.21.26-7.78-4.47L214.48,115l.21,3.26c0,.28.34,6.92-9,7.58l0,.37A121.58,121.58,0,0,0,181.42,130c-4.3-4-23.15-19.5-45.12-7.67-19,10.25-32.59,25.58-36.29,41a5.13,5.13,0,0,0,.54,4.88c1.56,2.17,4.86,3.24,10,3.24H111c-.72.65-1.43,1.29-2.11,1.95l-.67.48s-.55.56-1.48,1.63a47.73,47.73,0,0,0-8.4,11c-8.46,16.4-9.52,27-9.65,29.14l-.73-.22c-.66-.23-1.33-.44-2-.69a9.75,9.75,0,0,1-.92-.38,2.49,2.49,0,0,1-.39-.19l-.12-.08-.06,0,0,0-.16-.11a2.11,2.11,0,0,0-.26-.15l-.43-.19c-.25-.09-.42-.13-.64-.2-.39-.1-.78-.17-1.16-.22a20.69,20.69,0,0,0-2.26-.2,34.18,34.18,0,0,0-8.84.91,33.73,33.73,0,0,0-4.26,1.27,41.88,41.88,0,0,0-4.1,1.74,43.43,43.43,0,0,0-3.89,2.19c-.63.4-1.25.8-1.85,1.25s-1.21.87-1.78,1.34-1.15.95-1.7,1.44-1.1,1-1.63,1.52-1,1.05-1.55,1.6-1,1.1-1.48,1.67-1,1.13-1.4,1.73-.91,1.17-1.33,1.78c-.79,1.09-1.51,2.22-2.22,3.36a40.72,40.72,0,0,0-4.79,4.89,29.85,29.85,0,0,0-4,6.18A15.77,15.77,0,0,0,33,253.62l0,.53v.23l0,.2,0,.21a6.11,6.11,0,0,0,.29,1.06c.09.24.18.49.28.71s.23.41.36.61a6.3,6.3,0,0,0,.9,1.1,7.59,7.59,0,0,0,4.55,1.85,21.65,21.65,0,0,0,7.57-1.06,54,54,0,0,0,6.66-2.51c.54-.24,1.07-.5,1.6-.77l.4-.2.28-.14.18-.1.73-.41,3-1.62q3-1.6,6-3.14c4-2,8.06-4.06,12.16-5.93,2-1,4.11-1.84,6.18-2.74l2.26-1c-.55,5.91-1.75,27.3,7.5,43.54,9.74,17.09,21.24,69.35,22,73,.83,24.75,6.07,40.87,15.57,47.92a17.23,17.23,0,0,0,10.32,3.57,11.74,11.74,0,0,0,2.82-.3l.3-.08.27-.15c33.46-19.25,39.44-27.05,40.5-30.4,6.25-.49,14.28-7.4,24.4-20.95a262.56,262.56,0,0,0,15.32-23.32l1-1.68L225,330.41a68.38,68.38,0,0,0-55.73-15.62,65.93,65.93,0,0,1-8.34-8.37c2.5.62,5,1.24,7.49,1.75,2.76.57,5.53,1.13,8.32,1.61,1.39.27,2.8.44,4.2.65s2.82.38,4.24.51,2.86.25,4.3.34l2.19,0,2.25-.14,1.19-.21.59-.11.49-.12c.68-.18,1.36-.35,2-.49l4.06-.92,8.22-1.76,4.12-.88,4.12-.91c2.74-.61,5.49-1.24,8.22-1.91-2.82.15-5.62.37-8.42.64s-5.6.55-8.39.89-5.58.71-8.38,1.13c-1.4.21-2.78.41-4.2.69-.71.13-1.41.27-2.09.42l-.53.11-.45.05-.88.12-2,0-2-.1c-1.36-.11-2.72-.2-4.09-.38-2.74-.31-5.48-.77-8.23-1.22s-5.49-.95-8.23-1.48c-2.24-.45-4.49-.87-6.73-1.33,0-.08,0-.16.06-.24a5,5,0,0,1,.26-.82,8.34,8.34,0,0,1,.32-.81c.13-.26.24-.53.37-.79l.44-.77a14.89,14.89,0,0,1,1.06-1.46,15.38,15.38,0,0,1,1.24-1.36q.66-.65,1.39-1.25c.49-.4,1-.8,1.49-1.16s1-.72,1.58-1.07,1.1-.67,1.66-1,1.14-.6,1.71-.91c1.15-.59,2.35-1.12,3.56-1.62s2.43-1,3.68-1.39l1-.33.09,0c.85.19,1.67.45,2.49.71s1.65.49,2.44.82a23,23,0,0,1,2.36.94l1.13.54.57.27.62.32c.38.2.79.41,1.24.6s.86.4,1.29.56c.85.36,1.71.67,2.57,1a50,50,0,0,0,5.24,1.47,79.45,79.45,0,0,0,10.66,1.63c2,.15,4.07.24,6.1.24,12.26,10.67,42.15,25.14,48.24,28,.53,2,.29,5.65-.15,8.18-.1.37-1.12,1.19-.48,2.14,1.51,2.26,7.42,3.62,13.47,4.08h0c4.32.23,4.54,5,4.55,5.06l.62,1,1.28,0a45.64,45.64,0,0,1,27.34,9.11c13.4,10,48.61,26.1,56.29,26.1h0c6.19,0,15.54.49,16.2-6.11.59-5.85-3.67-9.73-10.22-15.45a29.37,29.37,0,0,1-3.48-3.47l8.71-8.82a1.71,1.71,0,0,0,.92,0l.05.17h0c1.87-1.73,6.27-2,11.71-4.64l0-.09.07-.08c.84-.41,1.72-.88,2.6-1.35l3-1.52h0c5.29-2.74,10.65-6.12,14.45-10,.39-.4.8-.83,1.23-1.3C426.29,316.81,446,285.79,414,275.3ZM292.38,127.74a7.83,7.83,0,0,0,4.89-3.3l8.79,26.63a160,160,0,0,0-15-6.59l-7.22-20.07C286.91,127.08,289.76,128.19,292.38,127.74Zm-14.61-2a5.78,5.78,0,0,0,3.22-2.24l7.15,19.87-1.63-.59q-7-2.44-13.42-4.55l.35-.13-6.19-17.2C271.37,124.87,274.89,126.49,277.77,125.77Zm-16.6-4.05a5.37,5.37,0,0,0,3.15-1.85l6.33,17.59q-5.76-1.87-11.06-3.49L254,118.51C256.6,121,259,122.09,261.17,121.72Zm-15.32-1.41c2.18-.18,3.88-1.85,5-3.43l5.87,16.23q-5.37-1.61-10.27-3l-3.83-10.72A5.07,5.07,0,0,0,245.84,120.3Zm-10.15,1.87a6.72,6.72,0,0,0,4.17-3.33l3.76,10.52-2.65-.7c-2.51-.48-5.15-.92-7.9-1.29l.14-.05-2.33-6.47A6.15,6.15,0,0,0,235.69,122.18Zm-10.3,1.88a5.53,5.53,0,0,0,3-3.15l2.21,6.14c-3.37-.41-6.89-.71-10.53-.89l-1.42-3.95C221.26,124.16,223.5,124.78,225.39,124.06Zm-10.53.35a9,9,0,0,0,1.28-2l1.3,3.61q-2.16-.06-4.37-.06A9.45,9.45,0,0,0,214.86,124.41ZM103.5,166.2a1.52,1.52,0,0,1-.15-1.43l.09-.18,0-.2c3.41-14.52,16.32-29,34.53-38.85s33.57.76,39.33,5.66l-1.53.48-20.89-6.43,17.64,7.52q-2.89,1-5.79,2.24l-21.07-6.65,18.19,7.91c-1.15.52-2.3,1.06-3.45,1.63q-1.12.36-2.37.88l-19.22-6.16,16.49,7.44c-.77.4-1.56.83-2.39,1.33l-2.52,1.68-18.32-5.88,16.19,7.3-4.79,3.22-18.36-5.89,16.23,7.32-3.69,2.5-17.6-5.57,15.44,7-4.35,3-17.61-5.57,15.46,7c-1.73,1.2-3.25,2.27-4.42,3.11l-12.78-3.36,10.78,4.84c-1.43,1-2.86,2.12-4.28,3.23l-8.46-2.23,7.19,3.23-1.53,1.24C106.15,168.61,104,166.81,103.5,166.2Zm62.61,172.53c3.86,2.22,20.22,12.47,26.69,30.34-3.54,3-6.63,4.47-8.85,3.71L182.05,377a1.27,1.27,0,0,1-.76-1.07c0,.25-1,6.45-38,27.78a11.93,11.93,0,0,1-9-2.65c-5.52-4.18-12.25-14.92-13.46-42.23l1.79-.18q.05.41.13.94c.08.67.24,1.47.39,2.39s.36,1.94.65,3l.41,1.73.51,1.83c.33,1.26.8,2.55,1.23,3.9s1,2.71,1.58,4.07,1.18,2.75,1.91,4.08l1,2c.36.66.77,1.29,1.15,1.92s.75,1.27,1.15,1.87l1.24,1.75c.41.57.79,1.15,1.22,1.68l1.28,1.52,1.2,1.43c.4.45.83.85,1.22,1.25.8.79,1.51,1.53,2.17,2.14l1.81,1.5,1.57,1.3L143,397.61,141.31,396c-.6-.67-1.25-1.46-2-2.3-.35-.43-.74-.85-1.1-1.33l-1.06-1.51-1.12-1.59c-.37-.55-.69-1.15-1-1.74l-1.07-1.8c-.34-.62-.64-1.27-1-1.91s-.66-1.29-1-2l-.84-2c-.6-1.33-1-2.73-1.51-4.08s-.82-2.73-1.19-4-.66-2.6-.87-3.83l-.34-1.78-.25-1.68c-.18-1.07-.26-2.06-.37-2.93s-.15-1.64-.18-2.26c0-.43,0-.78-.05-1.06,1.57-.23,3.11-.48,4.6-.75.23,1.2.56,2.76,1.06,4.6.26,1,.59,2.12,1,3.27s.81,2.35,1.23,3.59,1,2.49,1.54,3.75,1.13,2.53,1.81,3.76l1,1.85,1.06,1.78c.36.58.68,1.18,1.06,1.74l1.13,1.64c.38.53.71,1.08,1.11,1.57l1.14,1.44,1.08,1.36c.37.42.75.81,1.09,1.2.71.76,1.34,1.47,1.93,2.07l1.61,1.47,1.4,1.28-1.27-1.4-1.46-1.6c-.53-.64-1.09-1.4-1.72-2.21-.31-.41-.65-.82-1-1.27l-.94-1.43-1-1.51c-.34-.51-.62-1.08-.94-1.63l-1-1.69c-.32-.57-.58-1.19-.88-1.78l-.87-1.82-.77-1.88c-.54-1.24-1-2.53-1.41-3.78s-.78-2.53-1.15-3.73-.64-2.4-.87-3.54-.47-2.2-.63-3.2c-.34-1.9-.52-3.49-.63-4.64,1.71-.38,3.33-.81,4.93-1.27.19.85.41,1.81.7,2.86s.56,2.05.91,3.17.76,2.27,1.17,3.48.91,2.42,1.45,3.64,1.06,2.47,1.69,3.66l.91,1.81,1,1.75c.33.57.64,1.16,1,1.7l1,1.61c.35.52.67,1.06,1,1.55l1.06,1.42,1,1.34c.34.43.69.81,1,1.19.66.76,1.25,1.46,1.8,2.06l1.5,1.48,1.3,1.29-1.18-1.4-1.35-1.61c-.49-.65-1-1.4-1.59-2.2-.28-.41-.6-.82-.89-1.27l-.86-1.41-.91-1.49c-.31-.51-.57-1.06-.86-1.61l-.87-1.66c-.29-.57-.53-1.16-.81-1.75l-.8-1.78-.71-1.83c-.5-1.21-.89-2.47-1.3-3.69s-.72-2.46-1.07-3.63-.6-2.34-.8-3.44-.44-2.14-.59-3.1c-.21-1.23-.35-2.31-.46-3.24,1.53-.52,3-1.06,4.43-1.65.17.73.37,1.51.61,2.36s.6,2,.94,3.15.77,2.27,1.22,3.45.93,2.4,1.49,3.61l.82,1.83.91,1.81c.58,1.22,1.27,2.37,1.92,3.53s1.38,2.23,2,3.3,1.41,2,2.07,3,1.34,1.79,2,2.56,1.2,1.5,1.75,2.09l1.44,1.54,1.25,1.33-1.12-1.45-1.28-1.65c-.49-.64-1-1.42-1.53-2.23s-1.16-1.71-1.71-2.7-1.22-2-1.76-3.1-1.19-2.21-1.69-3.41-1.09-2.37-1.54-3.6l-.71-1.83-.63-1.84c-.43-1.21-.76-2.43-1.11-3.61s-.6-2.33-.86-3.41-.46-2.12-.62-3.08c-.22-1.2-.37-2.25-.48-3.16,1.1-.54,2.14-1.12,3.16-1.72.29.78.59,1.66,1,2.6s.81,2,1.3,3,1,2.17,1.59,3.32,1.22,2.29,1.9,3.44,1.37,2.32,2.16,3.43l1.15,1.68c.39.55.82,1.07,1.22,1.6s.8,1.05,1.21,1.56l1.27,1.45c.42.47.82.95,1.24,1.39l1.27,1.25,1.2,1.18c.39.38.81.7,1.19,1,.77.65,1.47,1.25,2.1,1.77l1.73,1.22,1.5,1.06-1.39-1.2-1.59-1.37c-.58-.57-1.21-1.23-1.91-1.94-.34-.36-.72-.71-1.07-1.12l-1.07-1.27L169,372.22c-.37-.47-.71-1-1.08-1.47l-1.11-1.52c-.35-.53-.69-1.08-1-1.63s-.71-1.09-1-1.66l-1-1.72c-.66-1.13-1.2-2.34-1.78-3.49s-1-2.35-1.52-3.47-.89-2.24-1.23-3.32-.69-2.07-1-3-.5-1.8-.71-2.57l-.24-1a35.49,35.49,0,0,0,8.58-8.41ZM165,330.84a24.92,24.92,0,0,1-2.9,5.37c-7,9.85-21.08,15.9-42,18-2.3-10.37-12.75-56-22.14-72.49-8.32-14.59-7.42-34.53-6.93-40.44h0C97.21,257.29,113.91,287.89,165,330.84Zm12.08-41.78c-1.29.35-2.57.75-3.84,1.22a37.1,37.1,0,0,0-3.73,1.61c-.6.32-1.21.63-1.8,1s-1.17.72-1.75,1.11-1.12.83-1.65,1.29a18.06,18.06,0,0,0-1.53,1.47,17.68,17.68,0,0,0-1.38,1.66l-.61.91c-.19.31-.36.64-.54,1a8.25,8.25,0,0,0-.46,1,7.28,7.28,0,0,0-.38,1A11.81,11.81,0,0,0,159,304c-3.75-5.27-5.66-10.49-5.67-15.6a19.86,19.86,0,0,1,.34-3.67l2.57.15q2.63.17,5.26.4c1.75.15,3.5.35,5.24.54s3.48.45,5.21.71,3.45.56,5.17.86l2.56.53,1.22.29C179.67,288.44,178.38,288.71,177.11,289.06ZM155,280.55a24.24,24.24,0,0,1,4.62-7.17c2,1.2,3.81,2.31,5.22,3.18a44.53,44.53,0,0,1-4.25,2.12,31.84,31.84,0,0,1-4.71,1.66ZM238,308.22a128.7,128.7,0,0,1-18.88-10.64c1.49,0,3,0,4.47-.15.82-.07,1.65-.15,2.47-.26a20.88,20.88,0,0,1,8.24,3.83c3.2,2.35,11.37,5.42,18.43,7.83C252.49,309.72,250.55,314.19,238,308.22Zm4.63-5.88c-.72-.86-10.31-5.57-11.78-6.29.21-.08.43-.15.63-.24a4.63,4.63,0,0,0,2.1-1.62,4.5,4.5,0,0,1-2.2,1.36,16,16,0,0,1-2.57.55,35.41,35.41,0,0,1-5.26.31,75.35,75.35,0,0,1-10.5-.85,78.76,78.76,0,0,1-10.27-2.16c-1.67-.48-3.33-1-4.94-1.62-.8-.31-1.6-.63-2.37-1-.4-.17-.77-.36-1.13-.55s-.74-.38-1.13-.61l-.55-.31-.62-.33-1.24-.65a25.59,25.59,0,0,0-2.53-1.13,27.35,27.35,0,0,0-2.58-.94c-.87-.29-1.73-.58-2.61-.81s-1.75-.5-2.62-.71l-2.64-.61c-1.76-.36-3.53-.74-5.3-1s-3.55-.54-5.32-.79-3.33-.4-5-.56a50.91,50.91,0,0,0,4.6-2.36c.77-.48,1.6-.95,2.33-1.43s1.45-1,2.19-1.44a17.24,17.24,0,0,1,4.32-2.07,14.36,14.36,0,0,1,2.35-.59l1.2-.21,1.23-.09a27.11,27.11,0,0,1,5,.15,34.43,34.43,0,0,1,4.94,1,35.58,35.58,0,0,1,4.77,1.71l4.72,2.27c1.59.77,3.22,1.46,4.82,2.2s3.25,1.4,4.9,2l2.48.94,2.51.87c1.68.56,3.36,1.1,5.08,1.53s3.44.83,5.19,1.12a21.37,21.37,0,0,0,5.28.28,21.14,21.14,0,0,1-5.17-.81q-2.54-.65-5-1.54c-1.64-.58-3.27-1.21-4.88-1.88l-2.41-1-2.38-1.1c-1.59-.73-3.15-1.51-4.72-2.27s-3.11-1.59-4.64-2.43l-2.3-1.26c-.77-.4-1.52-.84-2.37-1.26a38.24,38.24,0,0,0-5.06-2,37.33,37.33,0,0,0-5.33-1.31,28.2,28.2,0,0,0-5.55-.32l-1.4.07-1.4.21a17.45,17.45,0,0,0-2.77.62,20.58,20.58,0,0,0-5.2,2.34l-.21.13c-4.51-2.88-20.29-12.7-28.48-14.92-12-3.24-28.08-9.18-29.48-23.28l-.23-2.32a22.1,22.1,0,0,1,5.53.09,23.59,23.59,0,0,0-6.8-.83,46.23,46.23,0,0,0-6.87.59c-2.28.34-4.52.83-6.76,1.35s-4.44,1.16-6.63,1.84c-4.39,1.34-8.7,2.89-12.94,4.6s-8.46,3.5-12.59,5.46q-3.1,1.46-6.17,3L54.77,251l-.77.4-.19.1,0,0h0l0,0-.09,0-.36.17-1.49.66a49.44,49.44,0,0,1-6.1,2.23,17.43,17.43,0,0,1-5.85.83,3,3,0,0,1-1.68-.58l2.27-1.39a32.17,32.17,0,0,1,2.89-1.7c1.15-.59,2.41-1.32,3.84-2l4.65-2.17,5.28-2.21c1.86-.7,3.77-1.46,5.73-2.17s4-1.45,6-2.07,4-1.36,6-2l3-.93,2.91-.87,5.52-1.61,5-1.4,10.3-2.82s-1.07.08-2.93.31-4.51.61-7.68,1.18c-1.58.29-3.29.61-5.09,1s-3.7.79-5.64,1.31-4,1-6,1.61-4.08,1.23-6.12,1.9-4,1.46-6,2.18c-1,.35-2,.77-2.92,1.18l-2.82,1.21c-1.84.82-3.58,1.73-5.24,2.54s-3.14,1.77-4.54,2.58-2.58,1.72-3.66,2.46A24.57,24.57,0,0,0,40.22,253c-1,.86-1.7,1.46-2,1.74,0-.06-.11-.1-.13-.19l-.08-.12a.2.2,0,0,0,0-.08,3.93,3.93,0,0,1-.09-.58l0-.08v0l-.07-.08,0-.32a11,11,0,0,1,1.15-5.4q.27-.59.59-1.18l2-1.23c.75-.44,1.6-1.06,2.69-1.59l3.58-1.9c1.35-.61,2.82-1.28,4.34-2l4.93-2,5.36-2c1.85-.61,3.71-1.28,5.61-1.85s3.77-1.21,5.65-1.72c.94-.26,1.87-.53,2.78-.81l2.73-.74,5.19-1.37,4.67-1.17,9.71-2.3s-1,0-2.75.16-4.24.38-7.22.8c-1.48.23-3.1.45-4.79.78s-3.48.63-5.31,1.07-3.73.84-5.64,1.37-3.83,1.1-5.76,1.66-3.8,1.31-5.67,2S58,235.26,56.3,236s-3.36,1.59-4.9,2.38-2.93,1.66-4.24,2.42-2.4,1.63-3.4,2.33a24.62,24.62,0,0,0-2.48,2l-1.64,1.43a27.59,27.59,0,0,1,2.66-3.86,37.15,37.15,0,0,1,4.41-4.57l.34-.29,0-.07,1.5-1c.57-.37,1.23-.85,2-1.34s1.74-1,2.72-1.57a15.89,15.89,0,0,1,1.58-.84l1.7-.87c1.14-.64,2.46-1.11,3.74-1.73s2.71-1.06,4.08-1.66,2.86-1,4.29-1.53,2.91-.95,4.35-1.38,2.86-.87,4.26-1.2,2.73-.73,4-1l3.63-.86c2.26-.5,4.15-.91,5.48-1.17l2.1-.42a51.72,51.72,0,0,0-7.79.25c-1.16.12-2.43.24-3.75.46l-2,.31c-.7.12-1.4.27-2.12.41-1.44.27-2.91.64-4.41,1s-3,.87-4.49,1.33-3,1-4.38,1.65q-1.07.45-2.11.92c-.7.3-1.37.63-2,1a39.67,39.67,0,0,0-3.71,2.07c-1.14.74-2.24,1.37-3.17,2.11s-1.78,1.39-2.52,2-1.3,1.24-1.79,1.71l-1,1c.68-1.16,1.35-2.32,2.11-3.42.36-.58.77-1.12,1.17-1.67s.8-1.1,1.23-1.62.85-1.06,1.3-1.56.89-1,1.37-1.5.94-1,1.44-1.43,1-.93,1.51-1.36,1-.88,1.56-1.29,1.07-.82,1.63-1.22A39.68,39.68,0,0,1,64,220.15a38.34,38.34,0,0,1,3.66-1.78A37.73,37.73,0,0,1,71.51,217a31.32,31.32,0,0,1,8-1.4,18.25,18.25,0,0,1,2,0,6,6,0,0,1,1.61.27l0,0h0l-.09-.07.08,0,.17.09.34.18a4,4,0,0,0,.59.23c.37.14.73.25,1.09.34.71.21,1.41.36,2.11.54,2.8.64,5.61,1.16,8.42,1.63s5.63.89,8.45,1.29l-8.22-2.31-3-.87c2-1.83,24.73-19.27,115.27,18.14,0,.13,0,.27.07.4a29.73,29.73,0,0,0,3.08,8.57,17.86,17.86,0,0,0,2.91,3.8,13.55,13.55,0,0,0,4.08,2.71,14.43,14.43,0,0,0,2.31.77l2,.53a16.68,16.68,0,0,1,1.92.61c.61.24,1.24.39,1.86.68l1.88.79,1.83.92c.62.29,1.2.66,1.8,1s1.19.69,1.77,1.07c1.18.72,2.32,1.51,3.45,2.31l1.67,1.26,1.64,1.31q1.62,1.33,3.17,2.77c.75.68,1.48,1.4,2.2,2.12-.65,2.71-1.42,5.44-2.18,7.75l-.19.58.35.5a48.53,48.53,0,0,0,4.19,5,111.06,111.06,0,0,0,3.6,11.31c.43,1.79,1,3.8,1.6,6C255.67,305.71,243.43,303.27,242.65,302.34Zm2-62.29-1-1.81c-.41-.7-.95-1.43-1.49-2.26l-.87-1.29c-.3-.44-.66-.87-1-1.32-.71-.89-1.4-1.89-2.24-2.8s-1.63-1.94-2.57-2.85-1.83-1.91-2.83-2.79l-1.47-1.35-1.52-1.27c-1-.86-2-1.62-3-2.39s-2-1.43-3-2.08-1.88-1.22-2.75-1.72c-1.72-1-3.22-1.81-4.28-2.34l-.1,0,.62-.77a43.61,43.61,0,0,1,3-3.2c1,.56,2.27,1.33,3.78,2.33.83.53,1.69,1.14,2.61,1.8s1.86,1.38,2.84,2.12,2,1.55,2.92,2.42,2,1.71,2.9,2.64l1.42,1.37,1.35,1.42c.91.92,1.74,1.89,2.54,2.83s1.55,1.87,2.23,2.78l1,1.31.87,1.28c.55.82,1.07,1.57,1.5,2.25l1,1.81.91,1.58-.82-1.62-.95-1.87c-.39-.71-.87-1.48-1.38-2.34l-.8-1.33-.94-1.38c-.64-.95-1.31-2-2.09-2.93s-1.53-2-2.4-3l-1.28-1.51L236,220.23c-.9-1-1.85-1.92-2.79-2.84s-1.92-1.77-2.84-2.63-1.87-1.61-2.77-2.33-1.75-1.39-2.57-2c-1.21-.91-2.3-1.66-3.19-2.25.32-.27.65-.55,1-.8s.68-.49,1-.72l.86.43c.93.49,2.24,1.24,3.75,2.25.75.52,1.57,1.07,2.4,1.72l1.28,1,1.29,1.09c.89.72,1.74,1.56,2.63,2.37s1.71,1.73,2.57,2.61,1.63,1.84,2.42,2.76l2.21,2.8,1.93,2.72c.61.87,1.11,1.74,1.62,2.52s1,1.5,1.31,2.17l.95,1.71.83,1.49-.74-1.54-.85-1.77c-.31-.69-.74-1.43-1.18-2.25s-.91-1.72-1.47-2.63l-1.78-2.86-2.06-3c-.74-1-1.52-2-2.28-3s-1.62-1.91-2.46-2.81-1.67-1.79-2.54-2.59l-1.26-1.2-1.25-1.1c-.81-.72-1.63-1.34-2.37-1.93-1.3-1-2.45-1.75-3.36-2.33a6.44,6.44,0,0,1,2.85-.51,5.18,5.18,0,0,1,1.4.33l.29.12a.86.86,0,0,1,.16.07l.22.14.45.29.11.07.06,0h0l.14.11,1.58,1.23,1.52,1.35c1,.94,2,1.89,2.9,2.93s1.84,2.08,2.76,3.12,1.78,2.15,2.62,3.27,1.67,2.25,2.5,3.39,1.62,2.3,2.38,3.48,1.51,2.38,2.23,3.59,1.41,2.45,2,3.71c.38.74.73,1.49,1,2.26-3.95,9-8.53,12-8.58,12l-.84.51.33.92a62.66,62.66,0,0,0,2.58,6.1h0l.26.53c.72,2.06,0,7-1.19,12.09-.56-.8-1.13-1.58-1.73-2.35-.89-1.11-1.82-2.18-2.79-3.24-.49-.52-1-1-1.48-1.55l-1.55-1.49c-1.07-1-2.14-1.91-3.28-2.8-.55-.47-1.15-.88-1.74-1.29s-1.17-.85-1.8-1.22l-1.86-1.15-1.93-1a21.39,21.39,0,0,0-2-.95,20.22,20.22,0,0,0-2.06-.81l-2.06-.7a10.74,10.74,0,0,1-1.65-.68,9.66,9.66,0,0,1-2.79-2.14,14.4,14.4,0,0,1-1.55-2.11c.44.05.91.1,1.42.19.7.1,1.45.23,2.24.4s1.62.37,2.48.57,1.73.49,2.61.77,1.78.59,2.64,1a28,28,0,0,1,2.57,1.17l1.24.63,1.16.7c.38.23.76.45,1.12.68l1,.73a17.36,17.36,0,0,1,1.83,1.41c.54.47,1,.89,1.48,1.28l1,1.09.92,1-.84-1-1-1.17c-.4-.43-.88-.89-1.39-1.4a17.72,17.72,0,0,0-1.74-1.57l-1-.82c-.35-.26-.72-.51-1.09-.78l-1.13-.8-1.21-.74a29,29,0,0,0-2.54-1.41c-.86-.47-1.77-.82-2.64-1.22s-1.77-.7-2.64-1-1.71-.58-2.52-.79-1.58-.43-2.3-.59-1.38-.29-2-.41l-1-.17a27.65,27.65,0,0,1-1.62-5.9c0-.08,0-.17,0-.26l.11,0c.88.18,2.15.47,3.65.9.75.21,1.56.45,2.41.73s1.74.6,2.66.92,1.86.72,2.8,1.12,1.91.81,2.83,1.31,1.88.93,2.76,1.46l1.33.76,1.26.81,1.22.79,1.12.82c.72.54,1.42,1,2,1.56l1.64,1.4,1.17,1.18,1,1-1-1.1-1.09-1.26-1.54-1.52c-.55-.58-1.22-1.13-1.91-1.72l-1.07-.91-1.17-.88-1.22-.91-1.3-.86c-.86-.6-1.78-1.14-2.7-1.68s-1.87-1-2.79-1.54-1.87-.92-2.78-1.34-1.8-.81-2.66-1.13-1.67-.66-2.43-.92c-1.51-.55-2.8-.94-3.71-1.2l-1-.27q-.22-2-.29-4l.24,0c.94.2,2.29.49,3.89,1s3.45,1.07,5.4,1.81c1,.4,2,.77,3,1.24l1.51.68,1.49.76c1,.49,2,1.05,2.93,1.6s1.86,1.15,2.75,1.71,1.69,1.18,2.48,1.74l1.13.84,1,.84c.64.55,1.25,1,1.76,1.49l1.28,1.23L242.2,244l-1-1.14-1.2-1.32c-.47-.5-1.05-1-1.66-1.61l-1-.92-1.08-.92c-.75-.62-1.52-1.31-2.38-1.93s-1.72-1.32-2.67-1.92-1.87-1.26-2.86-1.82l-1.47-.87-1.49-.8c-1-.55-2-1-3-1.47-1.95-.89-3.8-1.66-5.43-2.22s-3-1-4-1.26l-.8-.21c0-1,0-2,.07-3,.06-1.16.15-2.36.28-3.48.62-1,1.3-2,2-2.93l.44-.58.62.25c1,.44,2.52,1.1,4.24,2,.87.44,1.78,1,2.76,1.52s2,1.19,3,1.86,2.08,1.37,3.1,2.16l1.56,1.16,1.51,1.24c1,.81,2,1.71,2.94,2.58s1.82,1.8,2.69,2.67,1.62,1.8,2.37,2.64c.36.43.74.83,1.07,1.26l.93,1.23c.59.79,1.17,1.5,1.61,2.17l1.14,1.74,1,1.52Zm24.77,94.35,0-.11a26.62,26.62,0,0,0,.22-8.77c8.94,2.85,30.52,7.61,38.06,9.24l.51-2.35c-14.73-3.19-38.82-8.79-40.76-10.24-.53-.48-.77-3-1-5a33.42,33.42,0,0,0-1.88-9.43,119.5,119.5,0,0,0,14.47,5.6c8.79,2.88,17,5,17.12,5l.58-2.33c-9-2.26-33.26-9.27-37.43-14.59-3.42-4.36-6.24-12.5-7.74-17.48,16.5,14.69,40.45,19.34,41.56,19.55a16.08,16.08,0,0,1,10.38,8.73l.07.14c8.76,15.84,40.29,46.17,50.69,56-13.44-4.25-32.1-18.81-32.3-19a60.06,60.06,0,0,0-35-11.59C270.88,337.62,269.49,334.69,269.4,334.41Zm156.94-24.85a59,59,0,0,1-11.75,18.38c-.36.38-.73.74-1.09,1.11-9.36,9-31,17.39-31,17.39l27-27.58s15.24-19,10.49-27.53a24.8,24.8,0,0,0-8.67-9.27c18.94,1.59,15.77,24.87,15.77,24.87l.23.06C427,307.81,426.7,308.67,426.34,309.55Zm1.42-4.76c2.56-26.84-19.39-24.18-19.39-24.18s-8.41-1.33-24.58,10.88-32.08,29.78-32.08,29.78l-2.51,2.8a48.31,48.31,0,0,0-14.15-7.33l-.44-.45a7.59,7.59,0,0,1-2.33-4.49c.34-8.65,28.52-23.18,54.78-33.89l.18-.07.15-.12,3-2.57,5.39-4.62-6.61,2.59c-.15.06-14.93,5.87-29.6,13.31-20.32,10.3-30.33,18.37-30.61,24.73a9.77,9.77,0,0,0,3.55,6.77,1.68,1.68,0,0,0,.3.2l.82.7.24.07c22.49,7,31,29.1,31.07,29.33a30.93,30.93,0,0,0,1.5,3.19,9.81,9.81,0,0,0,1.09,2.54l1.69,1.95a35.72,35.72,0,0,0,4,4.69,70.19,70.19,0,0,1,5.31,6.9,6.68,6.68,0,0,1,.67,4.78c-3.89-7.38-13.6-14.27-15.13-15.31-.17-.21-.53-.67-.85-1.08-2.52-3.26-5.14-6.52-7-7.4-3.15-1.52-9.17-5.34-9.95-6.66-.44-2.24-3.33-7-4.23-8.37l-3,1.92c1.68,2.66,3.58,6.14,3.74,7.14s1,2.5,5.55,5.51a67.75,67.75,0,0,0,6.37,3.7c1.22.59,4.58,4.93,5.69,6.36s1.19,1.54,1.53,1.76c3.75,2.51,18.08,13.6,14.81,19.75-2,.21-4.22,0-6.54,0h0c-6.63,0-40.91-15.61-54.73-26a50.81,50.81,0,0,0-27.72-10.06,11.34,11.34,0,0,0-1.55-3.47c.28,0,.56,0,.85.05a58.68,58.68,0,0,1,33.53,11.08c1,.76,23.77,18.57,37.74,20.48l3.79.52-2.81-2.59c-.43-.4-43.28-40-53.47-58.37a18.29,18.29,0,0,0-12.06-10.11,104.71,104.71,0,0,1-18.32-5.7c-9-3.73-21.37-10.34-29.08-20.79.87-2.73,3-9.92,3.52-15.59a68.79,68.79,0,0,0,32.11,27.28l.8-2.27c-.24-.08-22.09-8-33.35-30.79a4.06,4.06,0,0,0-.32-.63q-1.12-2.32-2.07-4.85c1.66-1.32,5.54-5,8.88-12.88.52,8.4,3.73,20.34,15.64,31.16a16.55,16.55,0,0,0,5.66,3.74l.78-2.27a15.83,15.83,0,0,1-8.55-9c-3-7.84-.87-19,6.31-32.36,5.35-9.93,12.6-16.29,21.56-18.91,16.07-4.7,32.44,4.27,32.6,4.36l1.17-2.1c-.7-.39-17.38-9.54-34.43-4.57-9.45,2.75-17.09,9.34-22.72,19.55-3.67.52-12.16,1.2-15.54-.83l-1.4-.84-.39,1.59s-.21.88-.42,2.35a56.53,56.53,0,0,1-2.45,7.08c-.16-.69-.35-1.38-.57-2.06-.44-1.37-1-2.71-1.51-4-.27-.67-.56-1.32-.87-2s-.61-1.3-.93-1.94c-.63-1.29-1.32-2.56-2-3.82s-1.44-2.49-2.23-3.7-1.58-2.42-2.39-3.62-1.7-2.35-2.64-3.47-1.89-2.23-2.89-3.32l-1.57-1.58-1.69-1.5-.21-.19-.33-.24-.44-.3-.22-.15-.31-.18-.67-.35a9.2,9.2,0,0,0-2.69-.77,10.89,10.89,0,0,0-5.19.74,19.53,19.53,0,0,0-4.22,2.3,28.9,28.9,0,0,0-3.51,2.94c-1.09,1-2.1,2.13-3.07,3.25s-1.89,2.27-2.78,3.45S209,215.71,208.2,217l-.28.44-.06.51c-.17,1.54-.26,3-.32,4.42s-.06,2.92,0,4.38c0,.86.07,1.72.13,2.58-14.39-5.84-89.51-35-114.92-17.28,1.35-9.38,12.41-23.91,26.63-37.36,24.07-22.46,66.78-33.73,75.28-35.81a178.65,178.65,0,0,1,49.79-.11C344,150,375.52,236.45,375.52,236.45a28.88,28.88,0,0,1,5.92,2.7l4.18,2.88c5.41,4.35,11.15,11.7,12,23.62,0,0,5.46,1.27,8.47,10.57,0,0,29.55,2.34,21.72,29.08ZM372,355.66a36.92,36.92,0,0,1-4.85-8.29,56.79,56.79,0,0,0-16.07-21.79l2.38-2.81C358,326.73,369.5,338.39,372,355.66Zm-105.7-98.84a40.9,40.9,0,0,1-7.83-29.61q.06-.41.11-.75c4.06,1.45,10.47,1,13.89.66C266.47,239,264.4,249,266.34,256.82Z"/><polygon points="335.63 237.8 335.24 237.84 335.23 237.9 335.63 237.8"/><path id="mountain" d="M448.72,233.86a6.7,6.7,0,0,0,.09-2.54c-.14-.42-.92-3-2.48-7-4.29-12.45-13.47-29.17-22.26-37.86-10.57-12.7-13.69-26.54-18.67-39.27-.54-2-1-3.82-1.41-5.25-.93-3.32-3.77-7.2-7.27-11a47.71,47.71,0,0,0-4.74-5.38c-13.56-13.22-18.18-22.23-19.57-25.61a7.05,7.05,0,0,0-.45-1.19c-.06-.2-.09-.3-.09-.3A120.77,120.77,0,0,0,329,46c-13.79-12.14-22.64-2.4-23.22-1.59s-6.42,6.72-8.62,7.6-4.86,3.95-5.8,5.12-1.57,2.92-11.12,4.82c-3.22.64-6.57,2.88-9.59,5.56l-.44-.47.27-.07A165.38,165.38,0,0,0,247.3,40.61a27.63,27.63,0,0,0-2.37-2.1,89.85,89.85,0,0,0-16.6-11.6c-8.7-6.54-12.5-1.64-12.5-1.64s-3.75,3.5-10.52,3.12-9.65,5.88-14.8,8.47-15.2,9.24-19.82,21.23S155.14,79.24,145,81.48s-21.71,11.32-33.38,18.21c-55.06,32.54-74.2,131.4-74.2,131.4l20-24.41,10.9-22.58s35.25-76.1,85-83.25c18.57-1.8,17-11,22.28-14.54s7.12-6.47,9.5-9.14c1.42-1.59,6-13.51,7.42-18.55,1.94-2.3,3.61-4.57,5.19-6.72,2.43-1.32,5.32-2.82,7.73-3.84.15,3.13.52,7.27.89,9.87.59,4.15,2.08,10.25,2.08,10.25l3.12,1.52c-1.93-11.63,11.13-32,11.13-32,.3.18,3.41-3.88,9.05-1.66,1.15.45,4,1.44,5,2.49,1.34,1.38,1.49,1.95,4.3,2.91,2.3,2.12,10.16,11.26,12.91,13.06,3.43,2.25,6.07,7.27,13.51,16.07A77.62,77.62,0,0,0,260,79.77c2.56,4.38,8,7.73,12.6,7.73.71-1.41-5.76-3.7,20-23.52,3.37-2.59,4-3.13,6.6-5,.05.36,1.86-3.09,2.46-.24.87,4.11,1.55,10.06,1.55,10.06l3.66-5.08A42.15,42.15,0,0,1,314,51c5.71-1.71,12.41,2.8,12.41,2.8l.35.08c2.13,1.82,4.09,3.58,5.92,5.29l-.15-.13,14,16.61s3.28,5.12,7.16,11.32c5.94,12.94,6.13,22.53,19.94,33.27a61.9,61.9,0,0,1,6.42,5.79c2.37,2.79,4.07,4.71,4.07,4.71l.4.37c12.89,16,19.25,36.68,24.91,47.55l0,.16.14.18a20.09,20.09,0,0,0,4.23,5.94l.36.31c8.86,12.36,27.17,39.56,28.49,54.77l5-1.42c.18.29.3.42.35.35a3,3,0,0,0,.31-.54l.47-.14-.22-.6A11.17,11.17,0,0,0,448.72,233.86Z"/><path id="circle" d="M470.8,228.8C470.8,102.44,368.36,0,242,0S13.2,102.44,13.2,228.8A228.35,228.35,0,0,0,98.94,407.34H113.6A219.62,219.62,0,0,1,22.08,228.8C22.08,107.34,120.54,8.88,242,8.88S461.92,107.34,461.92,228.8A219.62,219.62,0,0,1,370.4,407.34h14.66A228.35,228.35,0,0,0,470.8,228.8Z"/></g></g></svg>